<?xml version="1.0" encoding="UTF-8"?><svg id="Layer_1" xmlns="http://www.w3.org/2000/svg" viewBox="0 0 1100 811"><defs><style>.cls-1{fill:#f3f4f5;}.cls-2{fill:#f2f4f6;}.cls-3{fill:#f2f3f4;}.cls-4{fill:#f2f2f3;}.cls-5{fill:#f8f9fa;}.cls-6{fill:#050608;}.cls-7{fill:#eeeeef;}.cls-8{fill:#e9e9eb;}.cls-9{fill:#fcfdfe;}.cls-10{fill:#edeeee;}.cls-11{fill:#fefefe;}.cls-12{fill:#e5e6e7;}.cls-13{fill:#fdfdfd;}.cls-14{fill:#fdfdfe;}.cls-15{fill:#929496;}.cls-16{fill:#b4b5b7;}.cls-17{fill:#b8b8ba;}.cls-18{fill:#9c9e9f;}.cls-19{fill:#cdcecf;}.cls-20{fill:#a9abac;}.cls-21{fill:#bfc1c2;}.cls-22{fill:#bcbdbe;}.cls-23{fill:#b0b2b3;}.cls-24{fill:#d8d9da;}.cls-25{fill:#a5a7a8;}.cls-26{fill:#cccdce;}.cls-27{fill:#cacbcc;}.cls-28{fill:#dee0e1;}.cls-29{fill:#c4c5c6;}.cls-30{fill:#d6d7d8;}.cls-31{fill:#c6c8c9;}.cls-32{fill:#c8c9ca;}</style></defs><path class="cls-11" d="M.12,741.01C.12,495.6,.14,250.19,0,4.78,0,.52,1.12,.04,4.97,.04,368.32,.14,731.68,.15,1095.03,0c4.57,0,4.96,1.36,4.96,5.25-.1,201.65-.08,403.31-.08,604.96-1.15,2.25-2.86,4.04-4.63,5.81-21.69,21.63-43.42,43.21-64.95,65-3.11,3.15-6.75,4.6-10.64,6.01-1.48,.54-2.59,.03-3.66-.84-1.43-1.16-2.67-2.5-3.97-3.8-54.77-54.69-109.52-109.41-164.36-164.04-2.82-2.81-4.83-6.33-8.13-8.7-1.46-1.05-1.83-2.73-1.03-4.49,9.34-6.39,18.7-12.75,28.47-18.47,1.17-.03,1.98-.63,2.57-1.61,.6-.7,1.34-1.18,2.26-1.33,2.97,.03,6.34,.76,6.54-3.88,.97-2.18,2.81-3.03,5.02-3.32,1.51,.19,2.86,.05,3.5-1.64,1.18-1.36,2.45-2.53,4.44-2.28,.71,.07,1.44,.2,1.82-.66,.1-.37,.22-.72,.34-1.07,.31-.94,.39-1.83-.41-2.59-.62-.56-1.26-1.09-1.91-1.6q-6.3-2.76-10.35,3.53c-4.1,2.7-8.71,3.74-13.51,4.16-2.68-.56-5.92-.6-4.79-4.88,1-1.21,2.4-1.51,3.84-1.71,.99,.03,2.08,.7,2.91-.42,.34-.27,.72-.45,1.13-.56,1.73,.89,2.1-.25,2.36-1.57,.35-.24,.75-.37,1.17-.41,.78,.08,1.4,.44,1.77,1.09,.32-.1-.07-.19-.02-.29,.02-1.05,.44-1.9,1.08-2.66,2.18-1.69,4.12-3.77,7-4.32,1.8,1.11,2.52,.44,2.48-1.5,1.3-2.37,3.59-3.41,5.88-4.47,1.48-.39,2.57-1.32,3.41-2.57,.64-.63,1.34-1.09,2.27-.93,1.9,1.2,.43-1.3,1.3-1.22,.22-.34,.5-.64,.82-.89,.94-.47,1.22-1.38,1.49-2.31,.59-1.26,1.55-1.96,2.97-1.98,1.9-.02,2.52-1.39,3.03-2.87,.45-1.32,1.31-2.32,2.45-3.1,1.67-1.45,5.48-.88,4.52-4.81,4.37-7.22,9.74-13.75,14.45-20.73,1.83-2.72,3.02-5.95,5.74-8.05,1.45-.73,2.5,.05,4.28,1.58-1.55-3.9,1.69-6.18,1.27-9.32,.4-2.11,1.53-3.79,3.13-5.18,1.25-.81,2.35-1.76,2.9-3.21,.23-.38,.52-.7,.88-.96,1.65-.25,2.77-.92,2.26-2.87,.26-1.44,.82-2.65,2.3-3.22,1.52-.5,2.65,1.06,4.19,.81,.55,.27,.27-.77,.1-.13-.07,.26-.2,.25-.46,.18-1.21-.34-1.95-1.07-2.08-2.36,.2-2.2,2.05-3.32,3.2-4.9,1.52-2.12,2-3.98-1.36-4.7-1.36-.09-2.25,.59-2.85,1.76-.35,.54-.81,.96-1.36,1.27-1.51,.41-2.43,1.38-2.76,2.91-1,1.5-2.1,2.85-4.07,3.04-1.03-.46-1.9-.63-1.7,1.02-.14,.42-.4,.73-.75,.98-1.87,.71-2.22,2.75-3.48,3.99-1.97,1.43-3.6,3.34-5.83,4.43-1.67,.54-3.13,1.39-4.21,2.82-2.6,1.87-4.87,4.29-8.23,4.85-2.49-1.42-.73-3.22,.29-3.66,2.96-1.28,2.46-3.77,2.78-6.03,4.16-5.88,10.71-9.2,15.57-14.36,1.45-1.54,3.12-2.93,4.68-4.4,1.23-.43,2.17-1.09,2.1-2.59,1.41-3.13,3.23-5.93,6.13-7.91,2.31-.23,3.02-1.57,2.56-3.71,.09-1.94,.83-3.57,2.31-4.85,1.48-.62,2.49-1.51,1.93-3.32-.1-1.2,.4-2.15,1.24-2.96,1.15-.78,1.69-1.85,1.54-3.25,.39-2.73,1.28-5.26,2.96-7.48,1.06-1.26,2.52-2.32,2.18-4.3-.01-1.17,.45-2.16,1.16-3.06,1.21-1.37,3.04-2.49,1.8-4.79-.01-2.16,1.27-3.79,2.26-5.54,2.22-1.48,2.81-3.66,2.63-6.16,.03-.92,.29-1.74,.91-2.43,1.17-.98,1.81-2.26,2.14-3.73,.17-.41,.43-.75,.76-1.04,3.33,0,.95-2.15,1.22-3.3,1.38-4.87,3.19-9.5,7.22-12.89,1.1-.28,1.9,.3,2.68,.95-.24-.76-1.08-.99-1.49-1.61-.57-2.29,.78-3.42,2.59-4.26,2.34-.33,2.95-2.03,3.18-4.03,.92-2.16,1.72-4.34,1.14-6.76,.33-1.58-.36-2.3-1.9-2.75-2.02-.58-4.05-1.36-4.8-3.68,.25-.33,.34-.79,.77-.97-.54-.07-.29,.58-.64,.73-.87,3.95-4.04,1.9-6.1,2.1-1.47,.14-1.08-1.62-.74-2.73,.19-.42,.45-.8,.75-1.16,2.39-1.67,3.08-4.16,3.29-6.88,.54-2.75,1.51-5.32,3.19-7.59,1.68-.98,2.19-2.42,1.64-4.26-.03-1.68,.45-3.2,1.34-4.61,2.63-2.12,4.44-4.46,2.15-7.92-.2-.67-.23-1.34-.12-2.03,.44-2.05,1.05-3.99,2.61-5.55,1.64-1.66,.11-2.01-1.14-2.41-.4-.59-.48-1.23-.38-1.91,.73-1.88,.76-4.03,2.32-5.61,1.17-1.18-.29-1.49-.89-2.06-1.25-1.04-1.36-2.26-.64-3.64,1.34-1.77,.95-3.54-.02-5.32-.38-1.37-.37-2.73,.02-4.09,1.16-2.83,.88-5.77,.67-8.71-.57-2.81-.16-5.58,.36-8.34,1.02-1.69,1.06-3.49,.57-5.35-.43-4.72,.09-9.31,1.75-13.76,2.74-1.66,4.88-3.36,3.37-7.26-.64-1.66,.39-3.83,.45-5.79,.02-.45,.1-.88,.24-1.31,1.04-1.63,1.83-3.35,1.72-5.36,.49-2.27,1.11-4.47,2.91-6.11,2.87-1.23,5.8-2.42,4.39-6.52,0-.46,.14-.88,.42-1.26,2.15-1.84,4.51-3.54,4.31-6.86,.54-1.5,1.82-3.16-.13-4.42-2.12-1.37-3.3,.39-4.47,1.79-2.23,2.65-4.43,5.34-7.41,7.23-3.31-1.18-2.69,1.21-2.72,3-1.1,2.52-3.29,4.13-5.08,6.08-1.18,.77-2.57,1.3-3.13,2.77-.33,.53-.77,.95-1.3,1.26-1.04,.35-1.48,1.23-1.88,2.15-1.75,2.25-3.07,4.87-5.65,6.38-2.44,1.05-4.25,2.7-5.05,5.3-1.79,2.41-3.88,4.51-6.3,6.29-2.91,.73-4.05,2.93-4.66,5.58-2.34,3.21-5.29,5.84-8.24,8.46-4.49,2.32-6.76,6.69-9.62,10.5-.44,.55-.98,.99-1.62,1.28-3.61,.23-3.56,3.44-4.63,5.72-.74,1.19-1.63,2.17-3.21,2.06-.41-.52-1.02-.77-1.57-1.1,.44,.49,1.17,.57,1.54,1.16-3.99,7.26-9.9,12.82-16.06,18.16-1.01,.21-1.89,.12-2.3-1.01,1.14-1.43,.05-3.6,1.81-5.08-1.91,1.18-.72,3.07-1.48,4.36-.95,1.78-.46,3.99-1.72,5.68-2.07,2.34-3.95,4.89-6.94,6.2-.76,.21-1.51,.46-1.97,1.18-.21,.36-.47,.66-.76,.95-1,.8-1.73,1.81-2.44,2.86-2.06,2.37-4.19,4.67-7.12,6.02-1.31,.46-2.13,1.43-2.74,2.61-1.21,1.42-2.69,2.45-4.43,3.13-1.58,.31-2.66-1.06-3.92-1.5-1.48,1.76,.31,3.49-.54,5.03-.64,1.34-1.71,2.17-3.11,2.61-3.3,.55-5.66,2.26-6.81,5.48-.56,.76-1.32,1.24-2.22,1.51-2.76,1.47-6.56,1.65-7.14,5.81-8.65,6.73-17.12,13.72-26.68,19.2-2.44-.44-3.23,1.44-4.24,3.03-1.02,.9-1.91,2.12-3.57,1.39-.99-.05-.26-4.24-1.81-1.3-1.53,2.91-3.95,4.79-5.65,7.37-.4,.23-.83,.34-1.29,.3-3.21-2.93-1.9,.88-2.58,1.74-1.84,2.17-4.09,3.7-6.87,4.37-1.15,.41-3.38-1.48-3.29,1.56-.66,1.27-1.77,1.9-3.08,2.28-1.61-.27-2.21,1.05-3.06,1.97-.4,.24-.83,.39-1.29,.46-2.61-.99-3.37,1.28-4.66,2.63-1.9,1.23-3.74,2.54-5.9,3.31-.66,.12-1.35,.16-1.93-.15-1.13-.6-1.9-.89-1.28,.91-2.37,2.3-5.16,3.75-8.45,4.17-.97-.18-1.94-.38-2.47,.82-1.02,1.18-2.28,1.88-3.84,1.96-1.1-.34-1.82,.18-2.4,1.05-.86,.7-1.82,1.14-2.92,1.29-2.19-.53-3.63,.83-5.12,2.05-4.13,2.2-8.49,3.75-13.07,4.66-.98-.07-2.01-.33-2.69,.74-.38,.22-.77,.34-1.2,.38-1.81-.23-2.68,1.31-3.95,2.09-1.23,.68-2.48,1.25-3.95,.94-1.33-.27-1.56-2.02-2.97-2.23-.62,1.17,0,2.59-.78,3.7-.35,.32-.75,.56-1.2,.72-2.05,.27-3.93,.45-4.47-2.37-.44-2.3-2.22-2.57-4.12-2.12-.75-.16,.29,1.03,.07,.4-.1-.28,.04-.36,.43-.24,4.39,1.35,4.43,2.77,.19,7.17-3.2,2.05-6.94,2.71-10.43,4.02-1.62,.15-3.32,.11-4.53,1.52-.38,.15-.77,.17-1.15,.08-1.62-.81-.23,1.27-1.11,1.18-1.63,1.32-3.58,1.83-5.57,2.27-1.77-.1-3.79-.77-4.37,1.9-5.12,2.83-10.29,5.55-15.56,8.09-1.66,.88-4.94-1.84-5.12,2.32-2.58,4.26-6.95,6.94-9.77,10.99-1.01,.84-1.93,1.75-2.11,3.15-.48,1.27-1.09,2.45-2.4,3.06-3.69,.21,.55,2.15-.62,2.91-.92,3.37-2.49,6.49-3.64,9.77-1.44,1.9-2.57,3.9-2.01,6.43-1.29,7.2-3.54,14.12-5.88,21.02-1.19,1.3-2.7,2.44-2.29,4.55-2.27,5.65-4.51,11.31-9.81,14.98-1.08,.54-2.37,.8-2.92,2.1-.34,.53-.77,.95-1.39,1.14-1.42-.03-1.94,1.32-2.96,1.92-.39,.22-.81,.35-1.26,.4-2.44-.87-3.57,.88-4.82,2.39-.36,.24-.77,.37-1.21,.39-1.34-.44-2.33,.24-3.28,1.07-.6,.3-1.24,.44-1.9,.45-.62-.24,.1,.25-.5-.03-2.45-1.17-3.08-1.04-4.36,.89-1.23,.46-2.51,.55-3.8,.55-3.34,.01-6.69-.02-10.03,.05-5.17,.06-10.18-.8-15.16-2.24-15.15-4.38-18.59-18.99-13.49-31.51,1.47-1.81,4.19-2.89,3.49-5.98,.05-1.2,.55-2.19,1.42-2.99,2.41-1.21,4.18-2.95,4.65-5.74,.32-.63,.79-1.09,1.51-1.25,4.73-.63,5.07-4.35,5.62-7.93,2.78-5.63,6.73-10.41,10.89-15.04,1.94-.23,1.96-1.6,1.81-3.08,.31-2.4,1.51-4.29,3.31-5.83,1.36-1.02,3.28-1.65,2.72-3.98-.08-2.14,.5-4.52-2.19-5.63-3.62,.11-4.72,3.4-6.87,5.36-.3,.34-.65,.61-1.05,.83-.95,.17-1.7-.27-2.41-.81-.76-.67-1.46-1.4-1.86-2.34-.5-1.41-.84,.16-1.28,.1-.38,.19-.78,.31-1.19,.38-1.17,.13-1.98,.81-2.67,1.68-.68,.81-1.42,1.56-2.38,2.05-1.23,.29-2.14,1.01-2.83,2.05-.61,.64-1.32,1.09-2.21,1.21-2.58-.26-3.45,2.31-5.31,3.22-2.29,1.11-4.59,2.17-7.23,1.99-2.37-.03-4.75,.01-7.13,.06-1.32,.23-2.63,.28-3.93-.07-1.51-.55-2.95-1.58-4.69-.77-2.18,.7-4.34,.25-6.5-.07-1.48-.49-2.85-.09-4.18,.55-.6,.18-1.22,.23-1.84,.18-1.28-.27-2.32,.37-3.4,.89-.41,.14-.83,.2-1.27,.22-2.52-1.29-3.63,1.2-5.37,1.99-1,.6-2.03,1.05-3.22,.57-3.03-2.44-1.27,2.12-2.78,1.91-1.43,1.18-3.09,1.88-4.86,2.34-1.27,.28-2.44,.98-3.75,1.03-3.62,.14-4.89,2.05-4.23,5.48-.61,2.78-2.49,4.39-5.01,5.41-2.82-.05-5.03,1.18-6.8,3.31-4.03,1.99-8.26,3.57-12.13,5.86-1.95,1.15-4.84,1.99-4.55,4.73,.31,2.96,3.43,2.69,5.59,3.16,4.88,1.06,9.85,1.68,14.66,3.07,2.07,.6,4.26,.93,5.85,2.59,1.29,1.68,.11,3.44,.13,5.59,2.09-.42,4-2.37,6.2-.95,1.65,2.05,2.78,4.35,3.45,6.89,.43,3.86-.64,7.56-1.26,11.31-.31,2.21-1.37,3.95-3.28,5.14-2.36-.46-3.01,.95-3.16,2.91-.85,.87-1.9,1.29-3.08,1.45-.49,.05-1.07-.1-1.45,.11-4.04,2.14-5.96,.94-5.52-5.02-.72,3.28,1.22,5.08-.18,6.97-.32,.36-.69,.63-1.13,.84-2.11,.28-4.21,.61-6.19,1.46-7.3,.35-14.65,1.28-21.66-1.75-.57-.32-1.41-.63-1.51-1.2-1.08-6.03-4.9-4.52-8.67-3.22-1.25,.11-2.37-.15-3.21-1.15-.49-.64-1.01-1.35-1.12-2.11-.57-4.12-2.57-5.69-6.6-3.92-1.26-.34-2.07-1.18-2.58-2.35-.4-1.36-.88-2.73-.33-4.16,.43-.61,.98-1.18,.74-2.1-.77,.6-.02,1.81-.96,2.28-.68,.39-1.39,.41-2.13,.2-5.17-4.43-7-10.35-7.51-16.86,3.36-3.54,3.77-6.94-.35-10.27-.74-.6-1.08-1.62-1.41-2.55-.35-1.12-.42-2.26-.24-3.41,.25-1.14,1.21-2.32-.24-3.34-.17-.41-.2-.84-.11-1.27,2-2.53,1.07-4.22-1.57-5.41-2.32-3.21-3.05-6.98-3.77-10.75,2.57-4.18,.33-6.1-3.45-7.29-.85-.51-1.34-1.26-1.53-2.21,.56-3.65-2.12-4.4-4.71-5.22-2.88-1.9-5.69-3.88-7.94-6.55-1.38-4.42-5.21-4.08-8.68-4.46-30.86-11.37-63.21-18.5-93.08-32.64-8.1-3.83-16.37-7.34-23.88-12.3-.8-3.46-3.94-3.3-6.44-4.13-.95-.09-1.73-.47-2.26-1.28-.82-2.27-2.57-2.89-4.78-2.69-9.09-4.58-17.74-9.8-25.16-16.86-.48-1.32-1.17-2.36-2.84-2.05-1.75-.1-2.95-1.09-3.96-2.39-.45-.65-.99-1.36-.98-2.11,.04-2.39-1.18-.38-1.76-.55-2.37,.09-3.72-1.44-4.96-3.13-.36-1.26-1.13-2.02-2.52-1.99-3.19-1.17-6-2.84-7.95-5.71-.51-1.18-1.45-1.82-2.68-2.11-.78-.3-1.44-.77-1.94-1.45-.43-.96-1.18-1.54-2.2-1.8-.62-.28-1.08-.72-1.44-1.28-.85-1.77-.96-3.45,.43-4.95-2.16-.28-4.42,.55-6.74,.38-1.91-.49-3.41-1.56-4.52-3.18-1.57-.97,.05-4.97-3.71-3.86-5.29-1.9-9.32-5.3-12.14-10.15,.24-2.99-2.01-2.66-3.86-2.86-7.33-5.47-13.81-11.79-19.17-19.23,.88-2.63-.44-3.05-2.63-2.59-2.6-.88-4.21-2.82-5.52-5.09-.81-2.41-2.53-3.95-4.81-4.95-1.76-1.47-3.45-2.99-3.8-5.43,1.39-3.43-2.49-.8-2.74-2.34-.58-.32-1.05-.75-1.33-1.36-.07-1.42-.92-1.98-2.25-2.04-3.18-2.51-5.75-5.57-8.07-8.86-.62-1.93-1.89-3.21-3.83-3.84-2.89-1.61-4.34-4.46-6.13-7.03-.5-1.2-1.17-2.29-2.27-3.06-.32-.29-.58-.63-.81-1-.45-1.25-1.25-2.07-2.64-2.19-.65-.3-1.05-.81-1.25-1.49-.12-.65,.18-1.61-.19-1.91-5.02-4.1-6.51-11.76-13.76-13.57-.42-.22-.72-.56-.88-1.01q.72-5.58-5.56-5.87c-.71-.24-1.17-.71-1.32-1.46,.36-2.67,.94-5.2-3.39-5.1-1.5,.04-2.57-2.42-4.57-2.45-2.5-1.44-3.9-4.02-6.07-5.79-1.25-1.02-2.49-2.76-4.24-1.4-1.77,1.39-.33,2.98,.42,4.4,.31,.59,.58,1.19,.67,1.85-.48,3.31,.75,5.52,4.1,6.38,2.91,4.44,5.09,9.2,6.16,14.43-1.02,2.47,.45,4.09,1.97,5.69,1.66,5.75,2.67,11.62,3.27,17.58,.08,1.68-1.42,3.46,.39,5.01,.33,.6,.44,1.25,.42,1.92-.15,1.58,.59,2.98,.9,4.47-.07,1.54,.06,3.1-.26,4.63-.08,2.99-.73,6.06,1.33,8.72,.56,1.4,.51,2.79-.03,4.18-3.97,4.23,0,7.67,1.16,11.39,.36,1.35,.42,2.73,.26,4.12-.52,2.38-.52,4.72,.6,6.96,.23,.91,.21,1.78-.3,2.61-3.68,2.67,1.87,2,1.29,3.54,1.04,3.93,2.29,7.81,3.17,11.78,.46,1.8-.55,3.93,1.23,5.43,.24,.38,.33,.8,.32,1.24-1.69,2.67,.53,2.77,2.16,3.27,5.57,11.72,13.39,22,20.84,32.52,.05,2.07-.59,4.19,.31,6.13,.92-2.01,2.64-1.56,4.28-1.37,2.92,1.94,5.37,4.37,7.31,7.29-.19,1.34-.35,2.65,1.76,1.88,1.13,.44,1.92,1.24,2.44,2.32,.25,2.94,.26,6.13,4.81,4.58,2.1,.29,3.64,1.68,5.06,2.98,5.25,4.83,11.75,8.03,16.84,13.04,.99,2.55-.12,4.13-2.45,5-2.3,.85-4.5,2.11-7.09,1.89-.45-.05-.87-.19-1.27-.4-1.56-1.87-3.51-3.04-5.97-3.31-3.2-1.5-6.21-3.22-8.05-6.42-.87-3.69-3.74-6.31-5.25-9.74-1.29-2.94-4.57-2.03-7.18-.91-2.8-.94-4.75-2.93-6.43-5.24-1.11-2.72-.81-6.83-5.74-5.76-1.23-.38-2.04-1.15-2.3-2.43-.69-2.77,4.31-1.97,3.05-3.92-1.22-1.89-3.69,.88-5.74,.48-.32-.06-.65-.03-.98-.08-1.71-.49-2.84-1.59-3.45-3.24,.16-1.97-.57-3.09-2.73-2.81-2.33-.77-3.73-2.68-5.34-4.33-1.39-1.43-2.8-2.39-4.73-.96-.9,.76-1.66,1.55-1.28,2.89,.37,1.28,1.36,.12,1.95,.53,.82,.49,1.27,1.22,1.44,2.14,.15,1.41-.93,3.89,2.3,2.63,.9,.42,1.38,1.16,1.65,2.07-.06,2.76,2.37,3.67,3.91,5.24,1.79,3.1,4.19,5.89,5.1,9.46-.15,1.61,.8,2.64,1.92,3.59,.81,1.12,1.25,2.36,1.23,3.75-.81,2.99,2.4,5.36,1.16,8.67-.47,1.25,2.55,.35,3.44,1.6,1.49,3.11,3.44,6.02,4.1,9.49-1.18,2.24,.32,3.25,1.95,4.2,.55,.73,.91,1.53,1.03,2.43,.16,.98-1.52,2.68,1.09,2.7,3.08,2.63,3.88,6.64,6,9.86,.37,2.72-.78,6.23,3.6,6.86,1.28,.71,2.22,1.67,2.42,3.19-1.58,2.59,1.73,1.54,2.04,2.71,3.9,3.98,6.8,8.77,10.55,12.85,.34,1.23,1.05,2.11,2.36,2.41,1.67,1.16,3.14,2.51,4.12,4.32,1.46,3.37-1.6,4.33-3.35,5.59-1.84,1.32-2.31-.93-3.14-2.03-.97-1.29-2.13-.05-3.2-.14-4.04-1.15-6.08-4.74-8.84-7.41-1.86-1.8-3.6-3.31-6.36-2.61-1.63,.58-.5,1.42-.18,2.17,.65,1.12,1.44,2.16,1.89,3.38,0,1.96,.93,3.19,2.88,3.59,2.37,1.53,3.88,3.74,5.04,6.24-.31,1.58-.09,2.79,1.93,2.76,2.45,2.49,4.77,5.08,6.03,8.41-.25,1.55-1.35,1.54-2.51,1.37-.56-.31,.27,.11-.33-.19-.04-.02,.01,.01,.04,.04,1.46,.84,3.32-.02,4.66,1.2,.74,.6,1.21,1.37,1.35,2.32,.09,.96,.12,1.93,0,2.87-.46,3.45,1.02,4.62,4.3,3.77,.89,.37,1.4,1.07,1.74,1.93,.21,1.02,.7,1.86,1.72,2.29,.71,.54,1.17,1.23,1.33,2.11-.06,1.72,1.16,2.64,2.29,3.61,.29,.36,.43,.77,.44,1.23-2.02,4.03,2.71,1.13,2.95,2.84,1.77,1.78,3.34,3.7,4.39,6.01,.15,1.06,.59,1.9,1.73,2.21,2.16,1.64,3.6,3.85,4.88,6.15,1.41,3.92,4.2,6.52,8,8.12,.85,.41,1.61,.95,2.18,1.71,1.1,1.34-.16,4.92,3.58,3.75,3.08,1.59,5.72,3.76,8.27,6.07,1.18,1.09,.53,4.45,3.76,3.02,1.6,.35,3.01,1.06,4.27,2.09,2.31,2.03,2.39,6.16,6.44,6.65,.86,.1,1.62,1.43,1.18,2.42-.74,1.67-2.41,2.09-4.11,2.25-1.22,.03-2.34-.23-3.29-1.04-1.62-1.64-3.07-3.7-5.88-2.24-2.05,.15-4.22-1-6.14,.54-2.38,3.61,.28,3.69,2.74,3.91,3.93,1.49,7.39,3.84,10.96,5.99,1.83,.64,1.21,4.64,4.51,3.26,.67,.24,1.16,.69,1.54,1.27,.84,2.26,2.93,2.35,4.84,2.76,1.79,.63,3.27,1.69,4.37,3.25,1.13,4.67,5.56,4.26,8.8,5.69,5.4,2.81,10.65,5.88,15.79,9.14,.4,.59,.51,1.23,.28,1.9-.17,.41-.75,.37-.92,.79,.23-.19,.48-.35,.78-.48,1.16,1.39,1.83-.37,2.77-.41,1.2,0,2.19,.43,3,1.27-.22,3.39,1.86,.15,2.56,.87,4.72,1.29,9.12,3.52,13.87,4.71,2.25,2.45,2.22,4.75-.51,6.84-.44,.17-.89,.21-1.35,.13-2.24-.25-4.38-2.09-6.75-.45-1.88,.39-3.82,.55-5.48,1.65-.5,.34-1.41,.43-1.23,1.24,.15,.68,1.02,.68,1.62,.92,3.82,1.69,7.97,2.29,11.87,3.68,1.58,2.24,3.95,2.17,6.32,2.14,8.4,2.28,16.48,5.49,24.52,8.75,.67,3.11,3.06,2.37,5.17,2.28,2.88,.77,5.58,2.04,8.38,3.04,.89,2.23,2.62,2.24,4.55,1.69,5.85,2.03,11.91,3.28,17.87,4.9,2.14,1.19,2.11,2.75,.77,4.53-1.11,1.46-2.47,2.7-3.76,3.99-82.75,82.65-165.51,165.29-248.26,247.95-1.89,1.88-3.75,3.76-6.17,4.97h-19c-2.07-1.1-3.8-2.6-5.46-4.26-20.07-20.08-40.16-40.15-60.27-60.19-1.66-1.65-3.16-3.39-4.26-5.45Z"/><path class="cls-13" d="M89.11,810.91c1.32-1.48,2.57-3.04,3.97-4.44,83.76-83.67,167.54-167.33,251.27-251.04,1.33-1.33,4.15-2.2,2.71-5.12,2.44-2.09,5.41-1.44,8.12-1.25,19.04,1.39,36.53-3.13,52.65-13.24,1.54-.96,3.05-2.05,4.99-2.06,.86,.14,1.44,.59,1.65,1.46-1.59,4.34-5.71,5.85-9.22,7.86-10.64,6.1-22.14,9.98-34.13,12.45-2.12,.44-4.27,.8-6.3,1.55-1.17,.43-2.93,.75-2.33,2.56,.43,1.29,1.92,1.19,3.06,1,6.1-1.03,12.3-.69,18.44-1.24,7.96-.72,15.96-.27,23.95-.09,14.24,.33,27.91-1.63,40.04-9.86,1.65-1.12,3.26-2.33,5.1-3.13,.91-.4,2-.85,2.74,.13,.73,.96,.01,1.91-.57,2.68-2.99,3.95-7.09,6.45-11.38,8.76-1.69,.91-5.15,1.08-4.12,3.83,.79,2.12,3.61,.6,5.45,.24,6.54-1.27,13.02-2.79,19.51-4.29,14.79-3.42,25.58-12.35,34.73-23.78,3.53-4.42,6.76-9.08,10.27-13.52,.91-1.15,1.93-2.76,3.58-2.19,1.73,.59,1.28,2.5,1.28,3.95,.01,8.36-3.94,15.35-7.83,22.35-4.32,7.76-10.26,14.32-15.73,21.24-5.37,6.78-10.73,13.58-14.5,21.47-6.46,13.51-7.87,27.29-3.08,41.66,3.47,10.4,8.44,20.31,10.26,31.26,.33,1.97,.48,3.96,.89,5.92,.18,.85,.61,1.6,1.65,1.44,.74-.11,1.05-.79,1.22-1.44,.42-1.63,.19-3.31,.28-4.97,.7-12.11,.97-24.27,5.07-35.92,3.07-8.74,7.64-16.6,13.34-23.85,.72-.92,1.47-1.82,2.48-2.44,.72-.44,1.53-.89,2.32-.38,.76,.48,.89,1.4,.75,2.23-.49,2.82-1.72,5.38-2.93,7.94-2.78,5.87-5.93,11.55-8.66,17.44-9.29,20.04-8.82,40.32-1.2,60.66,4.56,12.18,10.43,23.76,16.96,35,.77,1.32,1.34,3.64,3.44,2.65,1.68-.8,.74-2.75,.21-4.04-5.4-13.18-2.09-25.5,3.75-37.51,4.23-8.69,9.31-16.92,14.47-25.07,2.64-4.17,3.07-9.57,7.29-12.83,1.34,.03,1.7,.98,1.94,2.05-1.45,8.47-5.96,15.77-9.26,23.52-3.78,8.87-7.74,17.63-9.75,27.14-3.31,15.61,.08,29.66,9.81,42.17,5.61,7.22,11.89,13.87,18.58,20.12,1.16,1.08,2.37,2.8,4.23,1.64,1.45-.91,1.2-2.71,.84-4.13-3.63-14.13,.26-26.78,6.99-39.16,4.28-7.86,8.63-15.73,12.04-24.05,.56-1.37,1.12-2.81,2.72-3.37,1.31,.15,1.63,1.12,1.83,2.2-1,7.73-3.67,15.22-3.57,23.1,.03,2.1-1.35,5.55,1.45,6.01,2.22,.36,2.25-3.22,2.96-5.14,2.67-7.24,7.6-12.85,13.02-18.06,8.38-8.06,15.37-17.06,19.43-28.06,3.85-10.46,5.63-21.18,3.77-32.32-.3-1.81-.48-3.63,.2-5.42,.4-.74,.94-1.26,1.87-1.1,2.72,2.45,2.37,6.09,3.57,9.13,.36,.93,.71,2.1,1.9,1.95,1.23-.15,1.37-1.36,1.27-2.36-1.33-13.68,1.49-27.17,1.86-40.78,.38-13.86-5.12-25.1-14.36-34.99-7.52-8.05-16.79-14.16-24.33-22.18-3.95-4.2-7.03-8.83-9.09-14.17-1.04-2.69-1.42-5.47-1.11-8.33,.15-1.33,.3-2.81,1.83-3.25,1.52-.44,2.54,.62,3.3,1.72,2.09,3.01,4.26,5.95,6.56,8.8,10.7,13.34,24.57,22.25,40.19,28.67,4.46,1.83,8.96,3.65,13.75,4.49,1.39,.24,3.19,1.07,3.96-.79,.61-1.46-.82-2.41-1.83-3.21-2.61-2.08-5.06-4.34-7.27-6.82-1.13-1.27-3.35-2.76-1.8-4.52,1.27-1.44,3.01,.35,4.36,1.2,1.41,.88,2.76,1.86,4.14,2.79,8.49,5.76,18.02,8.75,28.11,9.42,17.09,1.13,34.25,1.28,51.21,4.08,.98,.16,2,.13,2.99-.02,.98-.15,2.17-.25,2.17-1.55,0-.89-.91-1.3-1.72-1.58-2.05-.7-4.19-1.1-6.28-1.66-12.8-3.4-24.92-8.37-35.95-15.79-2.22-1.49-4.3-3.16-6.1-5.12-.71-.77-2.08-1.61-.97-2.88,.89-1.01,2.16-.57,3.26-.12,1.08,.45,2.05,1.11,3.02,1.74,25.03,16.34,51.24,18.89,78.9,7.18,17.95-7.6,36.2-14.42,55.24-18.86,.49-.11,.98-.21,1.45-.39,1.33-.53,3.52-.66,3.14-2.51-.39-1.9-2.46-1.24-3.84-.98-14.46,2.72-29.04,3.88-43.73,3.31-13.89-.53-27.46-2.94-40.54-7.74-2.11-.78-4.6-1.22-5.63-3.73,.26-1.37,1.33-1.64,2.47-1.82,8.84,1.48,17.42,4.28,26.43,5.01,23.04,1.87,45.51-.47,67.26-8.56,2.27-.85,4.41-2.55,7.07-1.31-.2,4.77,4.46,6.35,6.86,8.77,56.44,56.93,113.22,113.52,169.95,170.16,2.23,2.22,8.24,1.06,11.54-2.23,11.66-11.62,23.27-23.3,34.96-34.89,12.51-12.4,25.09-24.74,37.63-37.1,0,65.4-.04,130.8,.1,196.2,0,3.74-.85,4.59-4.6,4.59-335.43-.1-670.87-.09-1006.3-.09Z"/><path class="cls-13" d="M.12,741.01c1.36,1.2,2.8,2.32,4.08,3.6,20.78,20.73,41.55,41.47,62.31,62.22,1.28,1.28,2.4,2.71,3.6,4.07-22.25,0-44.5-.06-66.75,.08-2.77,.02-3.34-.55-3.32-3.31,.14-22.22,.08-44.44,.08-66.66Z"/><path class="cls-6" d="M838.96,505.5c-32.98,13.39-66.56,16.2-100.91,5.82-2.34-.72-4.91-.61-7.04-2.04-1.12-.55-2.05-1.58-4.03-1.3,1.73-.21,2.55,.53,3.44,1.07,1.69,1.39,4.4,1.01,5.61,3.23,21.44,9.32,43.95,11.26,66.96,9.6,8.13-.59,16.21-1.67,24.19-3.38,2.1-.45,4.15-.21,4.71,2.36,.49,2.25-.77,3.23-2.93,3.7-22.47,4.95-43.55,13.93-64.99,21.97-26.24,9.84-50.91,5.53-74.07-9.55-1.6-1.04-2.83-2.93-5.16-2.55,4.56,5.49,13.6,11.4,24.25,15.93,8.12,3.45,16.54,5.94,25.13,7.92,2.01,.46,4.19,.88,3.79,3.62-.37,2.52-2.3,3.01-4.52,2.62-19.56-3.4-39.46-2.92-59.13-5.06-11.97-1.3-22.04-6.76-31.73-13.69,1.59,1.8,3.07,3.71,4.79,5.38,1.9,1.85,3.98,3.52,6.06,5.19,1.63,1.3,3.27,2.57,2.06,4.94-1.21,2.38-3.14,1.72-5.17,1.17-26.79-7.25-49-20.97-63.99-45.52-2.02,3.38-1.4,6.56-.63,9.67,1.59,6.34,5.33,11.45,9.96,15.83,5.8,5.48,11.8,10.75,17.88,15.92,16.73,14.22,23.45,31.95,20.03,53.77-1.51,9.65-2.72,19.45-.79,29.27,.41,2.09-.63,3.57-2.76,4.03-2.47,.54-3.1-1.18-3.57-3.07-.84-3.38-1.72-6.75-2.58-10.12-.44-.48-.76-1.02-.91-1.66-.03,.95-.45,1.91,0,2.86,2.47,15.82,.98,31.02-6.73,45.37-4.21,7.83-9.71,14.63-15.93,20.9-6.43,6.49-13.18,12.75-14.42,22.6-.22,1.78-1.75,2.82-3.72,2.53-2.23-.33-2.19-2.03-2.26-3.75-.37-9.58,1.85-18.76,4.2-27.93,.86-1.63,.03-3.62,1.11-5.2,.41-1.01,.62-2.08,1.03-3.09,.14-.28,.24-.57,.28-.89-.17,.05-.07,.21-.15,.34-.36,.96-.71,1.89-.96,2.85-.63,1.4-.75,3.07-2.2,4.02-4.77,12.22-11.73,23.37-17.29,35.21-4.64,9.89-5.66,19.96-3.25,30.51,.33,1.45,.79,3.01,.58,4.42-.46,3-2.83,4.4-4.92,2.22-12.51-13.11-27.33-24.54-31.62-43.7-3.01-13.45,0-25.93,4.95-38.28,4.62-11.53,10.65-22.46,14.46-34.32,.76-.89,.44-1.91,.11-2.77-.11-.28-.7,.46-1.08,.74-4.71,11.6-11.87,21.85-17.88,32.73-3.7,6.7-6.73,13.67-8.32,21.24-1.56,7.42-.84,14.54,2.19,21.43,1.01,2.3,1.97,4.55-.97,5.91-2.83,1.31-3.74-1.13-4.77-3.01-7.13-13.11-14.35-26.18-19.09-40.41-6.69-20.11-6.22-39.82,3.36-59.02,3.4-6.82,6.72-13.69,9.95-20.6,.72-1.54,1.94-3.1,1.11-5.62-10.06,11.74-17.24,24.35-19.61,39.39-1.45,9.22-2,18.5-1.85,27.82,.04,2.27,.03,4.7-2.91,4.78-2.8,.08-3.21-2.07-3.34-4.5-.5-9.26-3.52-17.96-7.26-26.26-11.64-25.8-6.64-48.73,10.87-69.96,7.08-8.58,14.43-17,20.03-26.7,4.19-7.25,7.28-14.83,6.84-23.53-1.96-.2-2.14,1.5-2.82,2.38-3.07,3.93-6.07,7.91-8.94,11.99-11.28,15.98-26.9,24.76-45.97,27.97-4.58,.77-9.1,1.94-13.65,2.88-2.02,.42-4.16,.73-4.91-1.91-.72-2.51,.81-3.4,2.99-4.19,6.25-2.28,11.69-5.78,15.87-11.15-.92-.61-1.49-.33-2.03,.12-13.31,11.02-29.13,13.86-45.76,13.81-14.63-.04-29.28-.77-43.84,1.39-2.04,.3-3.78,.02-4.23-2.29-.58-2.93,1.53-3.72,3.78-4.17,10.28-2.02,20.44-4.47,30.15-8.47,7.24-2.98,14.14-6.55,19.95-11.94,.34-.59,.46-1.3,1.73-2.11-1.45,.59-2.18,.76-2.86,1.06-19.83,14.01-42.05,18.26-65.85,16.05-6.46-.97-12.89-2.05-18.81-5.06-1.31-.77-3.29,.07-4.19-1.71-3.3-.27-6.12-1.81-8.96-3.33-1.39-.47-3.24,.17-4.06-1.68-6.72-2.4-13.44-4.81-20.16-7.2-1.93-.69-3.87-1.33-5.81-1.99-1.56-.89-3.83,.22-5-1.77-4.42-1.09-9.15-1.25-12.96-4.22-.92-.97-.82-1.97-.09-2.99,1.24-2.98,3.88-1.69,6-1.98,2.18,1.06,4.88-.73,6.88,1.26l.13-.26-.16,.25c2.46-.3,4.87-.39,7.38-.07,25.48,3.34,50.43,1.3,74.63-7.75,2.33-.73,4.6-1.66,6.82-2.67,.4-.33,1.1-.04,1.36-.66-.62,.47-1.43,.51-2.1,.88-2.42,1.27-5.1,1.87-7.56,3.05-24.01,8.19-48.38,9.18-73.08,3.73-1.98-.44-3.83-1.1-5.29-2.58-5.23-1.04-10.32-2.46-14.98-5.16-1.05,.52-1.56-.14-2.01-.93l-2.69-1.22c-1.29-.21-2.56-.46-3.3-1.73-5.76-2.41-10.94-5.85-16.21-9.13-3.22-1.51-6.45-2.98-8.78-5.83-1.45-1.04-2.91-2.08-4.36-3.11-1.75-.65-3.37-1.53-4.65-2.94-.44-.37-.88-.73-1.33-1.1-1.71-.69-3.06-1.97-4.65-2.86-3.66-2.05-7.31-4.1-10.97-6.14-2.53-.72-4.41-1.86-3.22-4.98,1.81-4.52,4.81-.44,7.18-.99,2.01,.66,4.43,.26,5.9,2.29,.74,1.14,1.92,.62,2.93,.77,9.76,.86,19.08,4.03,28.77,5.42,18.99,2.72,37.93,3.19,56.92,.3,1.27-.5,2.66-.04,3.93-.53,1.67-.41,3.38-.64,5.05-1.01,1.26-.28,2.52-.51,3.86-.82-.54,0-.99,.12-1.42,.24-1.12,.31-2.29,.38-3.39,.77-1.69,.17-3.32,.58-4.96,.99-1.53-.09-3.01,.28-4.5,.52-21.3,2.96-42.45,2.6-63.16-3.68-8.86-2.68-18-5.08-24.92-11.93-1.4-.77-2.81-1.54-4.21-2.3-1.7-.34-2.88-1.38-3.79-2.79-2.72-2.07-5.44-4.15-8.15-6.22-1.63-.86-2.64-2.37-3.84-3.68-.55-.48-1.09-.96-1.64-1.44-4.17-1.53-5.75-5.58-8.39-8.59-1.73-2.08-3.46-4.15-5.2-6.23-.86-.52-1.33-1.34-1.68-2.25-1.42-1.92-2.83-3.84-4.25-5.76-1.45-.96-2.51-2.21-2.86-3.96v-.02c-1.61-.95-2.68-2.26-2.92-4.16-.44-.61-.88-1.22-1.32-1.82-1.05-.47-1.47-1.34-1.59-2.42-.43-.53-.86-1.07-1.29-1.6-2.47-1.75-3.88-4.2-4.67-7.06-.47-.64-.93-1.28-1.4-1.92-.94-.66-1.43-1.63-1.85-2.65-2.04-2.78-4.07-5.55-6.11-8.33-1.01-.61-1.52-1.57-1.88-2.65-1.71-2.11-3.41-4.22-5.12-6.33-1.73-.61-2.39-2.06-2.88-3.65-1.18-.84-1.96-1.94-2.22-3.38-.35-1.02-.66-2.04,.2-2.98,2.73-1.83,4.62-1.19,6.77,1.37,2.69,3.19,5.57,6.33,9.12,8.7,3.1,.96,5.38,3.28,7.78,5.19,23.04,18.31,49.73,27.94,78.28,33.07,18.19,3.27,36.48,5.55,55.05,5.29,17.46-.25,34.41-3.3,51.13-8.03,1.61-.45,3.25-.67,4.84-1.1,1.26,.14,2.31-1.02,2.83-.87-.41-.01-1.46,.7-2.61,.82-21.21,4.8-42.83,6.58-64.41,6.57-39.72-.02-77.31-8.73-110.58-31.72-4.9-3.38-10.03-6.62-13.14-12.01-1.43-1.41-2.87-2.83-4.3-4.24-.79-.37-1.35-.97-1.73-1.74-4.47-3.76-6.89-9.21-10.98-13.28-.65-1.06-1.54-1.98-1.89-3.21-.71-.92-1.43-1.85-2.14-2.77-2.37-1.62-3.11-4.19-3.95-6.7-1.94-3.43-3.89-6.87-5.83-10.3-1.28-.51-.69-1.85-1.2-2.7-.32-.76-.65-1.52-.97-2.27-.71-1.3-2.15-2.25-1.95-4-1.42-3.32-2.84-6.63-4.26-9.95-2.43-2.97-3.85-6.36-4.31-10.17-.56-1.28-1.12-2.56-1.69-3.84-1.2-.78-1.42-2.04-1.64-3.31-1.79-3.22-3.58-6.45-5.37-9.67-1.73-1.36-3.13-2.96-3.69-5.16-.43-.61-.86-1.22-1.29-1.83-1.13-.88-2.49-1.56-2.69-3.22-.46-.58-.92-1.15-1.37-1.73-1.59-1.05-1.86-2.41-.95-4.04,1.31-3.19,3.21-2.5,5.16-.71,2.04,1.86,3.99,3.82,5.97,5.74,1.42,.61,2.44,1.63,3.06,3.05,.64,1.32,1.63,2.29,2.95,2.94,1.82,.88,3.51,1.9,4.05,4.05,.34,.96,.98,1.62,1.95,1.94,2.68,1.31,4.83,3.17,6.09,5.94l5.82,5.08c5.11,2.81,9.75,6.17,13.11,11.04,2.25,2.48,4.89,4.45,7.9,5.92,2.14,1.2,4.41,2.2,6.01,4.17l-.05-.05c6.07,1.66,10.71,5.96,16.12,8.84,16.84,8.94,34.54,15.58,52.8,20.95,22.04,6.48,44.03,13.08,66.73,17,12.51,2.16,25.11,2.81,37.75,2.99,.85,.15,1.83,0,2.01,.33-.85-.59-2.4-.3-3.87-.37-11.16-.6-22.06-3.01-32.91-5.32-27.84-5.94-55.06-13.98-81.37-24.93-14.91-6.21-29.22-13.56-43.01-21.95-1.57-.96-3.12-1.91-4.07-3.56-7.49-5.23-15.17-10.21-21.84-16.52-2.94-.02-3.75-2.54-5.16-4.36-.77-.73-1.54-1.45-2.31-2.18-.81-.38-1.35-1.02-1.72-1.81-2.43-2.4-4.85-4.8-7.28-7.2-1.9-1.33-3.94-2.52-4.69-4.93-6.56-7.95-12.76-16.15-17.61-25.28-1.33-2.51-2.43-5.13-3.64-7.7-1.21-.71-1.76-1.73-1.45-3.14-.13-.3-.25-.59-.38-.89-1.87-1.22-.91-3.49-1.89-5.04-1.05-4.31-2.1-8.62-3.15-12.93-.77-.91-1-1.93-.62-3.07-.13-.98-.25-1.96-.38-2.93-.96-1.93,.02-4.12-.83-6.07-.07-1.64-.14-3.28-.2-4.92-.29-3.66-3.54-7.07-.9-10.97-.06-1.66-.12-3.31-.18-4.97-.37-2.66-.68-5.33-.8-8.02-.08-1.67-.15-3.35-.23-5.02-.32-1.32-.18-2.71-.61-4.01-.06-.65-.12-1.3-.18-1.95-1.61-1.64,.11-3.76-.82-5.5-1.12-5.83-2.24-11.66-3.36-17.48-1.09-1.54-1.66-3.25-1.7-5.13-1.65-5.12-3.61-10.11-6.23-14.82-1.83-1.65-3.74-3.25-3.67-6.05-.72-.88-1.46-1.74-2.16-2.63-1.41-1.81-1.15-3.52,.34-5.16,1.74-1.9,3.29-.91,4.63,.43,2.42,2.41,4.71,4.94,7.06,7.41,2.71,2.58,6.5,4.11,7.75,8.09,.3,.35,.59,.7,.89,1.04,3.58,.9,4.46,4.32,6.35,6.8l.02,.03c6.1,4.29,10.95,9.75,14.95,15.99-.01,.62,.28,.98,.91,1.04,1.46,.56,2.3,1.75,3.04,3.04l-.02-.03c1.34,.73,2.44,1.68,3,3.14,1.93,2.35,3.23,5.27,6.09,6.79,1.59,1.11,3.06,2.33,3.94,4.11,2.67,2.96,5.34,5.92,8.01,8.89,.97,.4,1.68,1.04,1.99,2.07,.3,.32,.6,.65,.9,.97,1.18,.81,2.71,1.28,2.94,3.02,1.4,1.64,2.8,3.28,4.2,4.92,1.96,1.4,3.74,2.97,4.95,5.08,1.29,1.97,2.87,3.66,4.84,4.98,1.47,.6,2.81,1.34,3.11,3.1,5.76,6.87,12.31,12.94,19.08,18.78,1.21,1.19,3.52,1.13,3.85,3.33,3.48,3.97,7.6,7.2,11.96,10.13,2.33,.09,2.93,2.19,4.16,3.55,1.33,.99,2.65,1.99,3.98,2.98,3.28,.48,5.03,2.97,6.93,5.26,.33,.25,.66,.51,.99,.76,.85,.38,1.74,.72,2.15,1.66,.61,.44,1.23,.89,1.84,1.33,.99,.76,2.48,.86,3.01,2.24,2.1,2.66,5.04,4.18,7.91,5.78,.99,.25,1.81,.72,2.22,1.71,1.5,1.18,2.49,3.09,4.66,3.32,1.61,.19,2.26,1.63,3.32,2.55,1.15,.9,1.88,2.4,3.6,2.47,1.44,.28,2.78,.69,3.23,2.33,7.92,6.18,16.2,11.81,25.09,16.52,1.91,.66,4.11,.83,5.02,3.1,.29,1.07,1.2,.94,2,1.02,2.48,.4,4.12,2.22,6.05,3.55,15.66,9.04,32.42,15.65,49.16,22.32,18.97,7.57,38.94,12.01,58.15,18.8,3.58,1.26,7.08,2.74,10.62,4.12,2.77,1.45,6.46,1.32,8.07,4.74,2.63,2.09,5.26,4.17,7.88,6.26,2.4,1.41,4.64,2.95,5.06,6.02,.42,.64,.83,1.27,1.25,1.91,1.88,2.01,4.43,3.65,3.82,7.01,1.18,3.71,2.36,7.42,3.54,11.13,2.32,1.48,2.42,3.53,1.49,5.84,.03,.33,.06,.67,.09,1,.95,1.01,.28,2.34,.67,3.46,.12,1.18,.23,2.36,.35,3.55,2.14,3.79,2.53,7.85,1.77,12.06,.41,6.4,2.83,12,6.84,16.96,2.01,.55,2.16,2.61,3.19,3.95,.28,1.03,.94,1.69,1.97,1.97,3.28,1.22,5.96,3.22,8.01,6.06,.41,1.42,1.67,.84,2.58,1.09,3.6,.12,6.64,1.65,9.45,3.77,7.85,2.52,15.84,3.32,24.01,1.99,1.53-1.23,3.54,.26,5.09-.87l-.06,.02c2.92-.65,5.31-2.84,8.43-2.9,.83-.48,1.66-.95,2.5-1.43,.46-1.4,1.82-1.89,2.82-2.74,1.13-1.64,2.26-3.28,3.39-4.93,.36-3.7,2.17-7.3,.85-11.13-1.09-2.29-2.17-4.58-3.26-6.87-2.16-.95-4.2-2.09-5.77-3.9-7.75-3.96-16.49-4.02-24.69-6.22-1.51-.4-3-.29-3.03-2.27-.03-1.72-.25-3.27,1.79-4.61,5.31-3.5,11.06-5.93,16.94-8.18,1.9-1.43,4.05-2.25,6.38-2.67,1.62-1.68,3.25-3.36,4.87-5.04,1.01-4.13,4.73-5.1,7.89-6.72,1.62-.88,3.24-1.76,4.86-2.64,.88-.8,1.6-1.92,3.07-1.51,1.31,.26,1.91-1.01,2.94-1.35,1.99-.79,4.05-1.35,6.14-1.81,.32,.18,.61,.13,.86-.14,.93-.6,1.93-.9,3.04-.78,.65-.09,1.31-.17,1.96-.26,1.39-.73,2.97-.33,4.41-.72,2.03,.23,4.06,1.26,6.09,.01,1.47,.34,3.05,0,4.47,.68,1.64,.13,3.29,.25,4.93,.38,2.04,.32,4.09,.5,6.11-.13,3,.49,5.27-1.63,7.97-2.2,1.75-.92,3.19-2.43,5.24-2.78,.58-.43,1.16-.85,1.75-1.28,.66-.95,1.62-1.45,2.66-1.86,.78-.69,1.56-1.39,2.34-2.08,.73-1.05,1.83-1.52,2.98-1.92,.35-.06,.69-.13,1.04-.19,.69-.28,1.37-.39,1.99,.17,.68,.69,1.36,1.38,2.04,2.07,.43,.93,.84,1.9,2.18,1.23l-.23-.22,.21,.23c1.92-3.14,4.02-6.09,7.78-7.28,4.19,.8,3.14,3.85,2.84,6.57-.16,1.9-1.2,3.28-2.6,4.45-1.46,1.72-3.08,3.35-3.31,5.77-.64,1.09-.75,2.52-2.08,3.14-3.61,5.02-7.21,10.05-10.82,15.07-.9,3.47-3.25,5.78-6.15,7.65-.31,.38-.62,.76-.93,1.14-.91,2.53-2.42,4.6-4.61,6.17-.77,.7-1.55,1.41-1.48,2.59-.25,2.12-.81,4.08-2.68,5.39-6.51,16.49-.27,29.44,17.7,32.14,2.84,.43,5.61,1.63,8.58,.91,4.04,.67,8.08,.67,12.12,0,1.18,.63,2.29,.09,3.42-.2,1.21-1.33,2.97,.22,4.24-.8,.59-.08,1.18-.16,1.77-.24,.88-.69,1.74-1.46,2.99-.91,.33-.07,.67-.13,1-.2,1.37-2.27,3.9-2.02,5.99-2.73h.01c1.05-.56,1.85-1.54,3.08-1.8,.36-.23,.73-.46,1.09-.69,.38-1.4,1.53-1.97,2.7-2.5,4.89-4.1,7.43-9.74,10.13-15.28,.9-1.08,.11-2.94,1.73-3.68,2.09-7.39,4.18-14.79,6.28-22.18,.8-1.88,.96-3.97,1.97-5.77,.89-3.61,2.08-7.11,3.98-10.34,.46-.85,0-2.1,1.15-2.64,.63-1.06,1.26-2.11,1.88-3.17,.46-1.05,.78-2.19,1.85-2.83,2.47-4.51,6.33-7.74,10.17-10.98,1.14-1.97,3.17-2.4,5.13-2.95,5.02-3.24,10.45-5.7,15.86-8.18,1.02-1.63,2.92-1.07,4.32-1.73,1.89-.76,3.78-1.53,5.67-2.29,.26-.39,.62-.6,1.1-.58,.3-.12,.61-.24,.91-.35,1.1-1.39,2.84-1.23,4.29-1.78,3.24-2.23,7.24-2.52,10.72-4.14,2.2-2.21,5.29-2.04,7.97-2.96,.34-.07,.68-.13,1.03-.2,.88-1.84,2.73-1.29,4.19-1.71,1.27-.42,2.55-.84,3.82-1.26,1.38-.76,2.72-1.61,4.36-1.67,.28,.16,.49,.09,.62-.2,.53-.65,1.21-.93,2.05-.82l13.96-5.16c1.38-1.35,3.3-1.33,4.97-1.96,1-.38,2.01-.76,3.01-1.14,.54-.59,1.21-.88,2.01-.87,1.33-.69,2.67-1.38,4-2.07,.62-.65,1.34-.8,2.16-.45,2.94-1.51,5.89-3.02,8.83-4.53,.78-.96,2.2,.12,2.95-.93,2.02-1.04,4.04-2.08,6.06-3.12,1.15-1.96,3.22-2.24,5.14-2.8,.37,.09,.65-.02,.85-.35,.69-.87,1.66-1.33,2.65-1.75,1.11-.69,2.23-1.38,3.34-2.07,.85-.91,1.89-1.44,3.14-1.52,2.29-1.5,4.58-3.01,6.86-4.51,.81-.94,1.56-1.98,3.05-1.7l.95-.47c2.38-2.28,4.68-4.67,8.07-5.46,.98-.77,1.96-1.54,2.94-2.31,1.61-.67,2.34-2.76,4.39-2.71,8.86-6.45,17.73-12.9,26.59-19.34,1.6-2.83,4.36-4.14,7.13-5.44,.62-.52,1.24-1.04,1.87-1.56,1.99-2.32,4.02-4.58,7.13-5.42,.96-.83,1.91-1.67,2.87-2.5,1.11-1.89,2.65-3.23,4.78-3.86l4.21-3.29c.79-1.07,1.76-1.95,2.87-2.68,3.13-1.2,4.48-4.44,7.13-6.2,.89-1.08,1.79-2.14,3.13-2.7l-.03,.03c.29-1.17,1-1.86,2.23-1.98l6.66-6.45c1.19-1.26,2.16-2.75,3.69-3.68,5.74-5.72,11.38-11.54,16.43-17.89l-.04,.04c.96-.81,1.92-1.61,2.89-2.42,1.37-2.13,2.17-4.75,4.92-5.69,.37-.37,.74-.73,1.12-1.1,3.41-3.52,5.92-7.85,9.88-10.87,2.7-2.77,5.41-5.54,8.11-8.31,.93-2.49,2.43-4.5,4.89-5.67,2.04-2.07,4.07-4.13,6.11-6.2,1.29-2.37,3.38-3.97,5.41-5.64,2.81-1.24,2.94-4.86,5.58-6.25,.36-.87,.92-1.54,1.82-1.9,.39-.4,.78-.79,1.17-1.19,.69-1.14,1.81-1.86,2.71-2.79,1.82-1.89,3.63-3.77,5.45-5.66,.24-1.67,1.19-2.76,2.75-3.33,2.62-2.88,5.4-5.64,7.8-8.69,1.75-2.22,3.62-2.98,5.77-1.15,2.26,1.92,1.82,4.07-.45,5.87-.79,2.95-2.69,5.11-4.99,6.98h0c-.51,3.18-1.85,5.88-4.5,7.82-1.66,1.72-1.39,4.23-2.5,6.17-.45,1.71-.78,3.47-1.85,4.96-.06,.33-.13,.67-.19,1-1.49,4.19-.06,9.14-3.39,12.85-1.37,4.79-1.78,9.69-1.74,14.65-.33,1.47,.28,3.07-.63,4.45-.12,2.98-.24,5.97-.36,8.95-.87,2.62,.26,5.41-.67,8.03-.02,1.67-.03,3.34-.05,5.01,.92,1.67,.68,3.33-.08,4.98-.77,.93-1.39,1.88-.21,2.95,1.14,2.79-.6,5.34-.66,8.02l-.04,2c1.64,2.89-1.46,5.22-.95,7.98l-.17,2.01c1.02,3.02-.25,5.52-1.79,7.97-.65,1.55-1.58,3.03-1.29,4.83-.78,1.3,.06,3.25-1.66,4.18-1.13,2.56-2.27,5.11-3.4,7.67-.51,2.87-2.43,4.96-4.05,7.22l.06-.07c-5.65,12.38-14.81,22-24.78,30.87-36.64,32.63-80.35,51.62-126.83,65.15-20.49,5.96-41.32,10.41-62.43,13.6-1.83,.28-3.64,.33-5.46,.37-1.67,0-3.34,.02-3.89,.28,.17-.11,1.47-.14,2.76-.26,30.87,.6,60.32-6.94,89.58-15.52,14.2-4.17,28.41-8.3,42.24-13.66,22.62-8.77,42.47-21.87,60.68-37.73,12.06-10.51,22.78-22.34,34.36-33.31,1.82-1.72,3.58-5.08,6.94-1.96,2.39,2.81,.23,4.91-1.12,7.13-.51,1.69-1.39,3.07-3.1,3.79-1.3,1.23-2.87,2.27-3.09,4.28,0,.59-.28,.94-.86,1.04-3.09,3.78-5.3,8.04-7.05,12.57-.25,1.31-.05,2.84-1.7,3.47-.29,.14-.38,.36-.25,.66-.51,1.51-.63,3.21-2.11,4.24-1.01,.42-.77,1.29-.77,2.08-.32,2.27-1,4.37-2.7,6.03,.11,2.33-2.63,3.57-2.29,5.98-.24,1.83-.76,3.53-1.99,4.96-.91,.77-1.2,1.8-1.17,2.94,.27,1.71-1.18,2.68-1.74,4.04-1.62,2.35-2.57,4.98-3.22,7.73-.25,1.24-.47,2.5-1.65,3.26-.65,.9-1.58,1.68-1.26,2.98-.39,1.12-.41,2.44-1.73,3.03-1.19,1.29-2.02,2.79-2.42,4.51-.27,1.94-.85,3.68-2.95,4.4-1.97,2.65-3.94,5.3-5.91,7.96-.38,.86-.77,1.72-1.73,2.11-5.91,7.14-13.51,12.43-20.38,18.52-2.05,3.7-5.7,5.54-9.14,7.47-24.26,13.63-50.37,21.57-77.99,24.35-27.76,2.8-55.39,1.06-82.91-3.18-2.3-.35-4.46-1.29-6.76-1.62-1.75-.65-3.7-.65-6.06-1.75,1.96,1.14,3.63,.96,5.03,1.58,10.86,2.52,21.46,6.09,32.57,7.49,13.91,1.76,27.8,2.02,41.82,.96,14.97-1.13,29.8-2.94,44.48-6.05,17.2-3.65,33.64-9.41,49.23-17.55,1.92-1,3.81-2.01,6-2.24,2.63-1.74,5.25-3.48,7.88-5.22,1.11-1.34,2.76-1.87,4.17-2.76,2.23-1.08,3.18-3.84,5.83-4.36,1.31-1.27,2.27-2.94,4.12-3.59l-.03,.03c.47-.84,.83-1.8,2.05-1.79,1.28-1.21,2.55-2.43,3.83-3.64,.82-1,1.72-1.91,2.73-2.72,.42-.42,.85-.85,1.27-1.27,.8-1.12,1.94-1.86,2.99-2.7,4.76,.83,5.65,2.87,2.78,6.42-1.23,1.52-2.51,3.01-3.77,4.51-.31,1.02-1.03,1.65-1.97,2.07-1.4,.42-1.47,1.81-2.08,2.81-.22,1.59-1.55,2.28-2.61,3.19-.35,.12-.49,.36-.42,.72-.36,1.48-1.62,2.26-2.58,3.27-1.46,1.38-2.81,2.83-3.37,4.84-1.25,3.13-2.74,6.09-5.58,8.14-6.52,9.8-13.09,19.57-20.43,28.8-.51,2.67-3.06,3.48-4.68,5.14-.86,.95-1.73,1.91-2.59,2.86-.31,1.55-1.24,2.48-2.79,2.79-1.39,.26-2.45,.91-2.86,2.35-.41,.92-1.05,1.61-2.02,1.97h0c-.57,.74-1.02,1.61-2.06,1.82-.64,.49-1.29,.99-1.93,1.48-.96,1.01-1.83,2.11-3.2,2.62-1.95,1.32-3.9,2.64-5.84,3.97-.41,1.49-1.97,1.39-2.93,2.11-2.93,.38-4.26,3.47-7.03,4.11-.73,1.28-2.01,1.53-3.31,1.74l-.41-.02-.29,.29c-.76,1.22-1.99,1.47-3.28,1.57l.06-.05c-.46,1.57-2.07,.55-2.9,1.28-1.02,1.25-2.69,.53-3.88,1.28-1.2,1.78-3.05,2.44-4.99,3.03-16.1,4.89-32.61,5.71-49.28,5.04-5.62-.22-11.15-1.39-16.77-1.49-1.92-1.05-4.15-.6-6.14-1.25-1.75-.71-3.73-.41-6.47-1.65,2.04,1.06,3.21,1.03,4.36,1.16,1.98,.68,4.04,.94,6.12,1.07,7.47,1.46,15.04,2.06,22.61,2.33,15.81,.56,31.5-.54,47-3.82,2.64-.56,5.29,.05,7.89-.53,4.76-.69,9.34-1.99,13.67-4.1,3.31-2.28,6.71-4.25,11-3.18,.62,.4,1.25,.79,1.87,1.19,1.17,1.21,.62,2.57,.37,3.91-.34,.08-.47,.29-.4,.63-.21,1.25-1.07,1.19-2,1-2.23-.4-2.94,2.2-4.84,2.46-.53,1.63-2.05,1.47-3.29,1.82-1.97,.29-3.55,1.27-4.87,2.71-1.3,2.98-4.25,3.39-6.82,4.4-.67,.44-1.35,.87-2.02,1.31-.65,.55-1.02,1.49-2.06,1.52-7.68,4.9-15.36,9.81-23.05,14.69-1.94,1.23-3.92,2.38-5.88,3.57Z"/><path class="cls-6" d="M560.02,240.83c-14.67-.31-29.33-.49-44,.09-3.07,2.43,.07,6.15-1.83,8.82-.11,16.28,.02,32.56-.44,48.82-.23,8.28,.41,16.61-.82,24.86-.23,1.18-.94,1.88-2.12,2.12-10.89,1.33-21.82,.35-32.73,.51-2.32,.03-4.83,1.29-7.07-.42-1.22-.83-2.66-1.47-2.91-3.19-1.17-2.33-.92-4.83-.92-7.3,0-67.24,0-134.48-.01-201.73,0-1.82-.13-3.64-.21-5.46-.62-1-.84-2,.01-2.99-.28-2.49,1.42-3.85,2.99-5.29,.49-1.02,1.37-1.41,2.42-1.55,11.09-.05,22.18-.14,33.27-.1,1.74,0,3.49,.65,5.23,.99,4.08,1.03,3.44,4.59,4.03,7.5-1.07,1.45-.03,2.93-.08,4.4-.79,12.57-.3,25.16-.3,37.74,0,9.25-.64,18.52,.4,27.76l-.22,.19,.13,.26c1.17,1.12-.84,2.24,0,3.36-.38,1.84,.32,3.05,2.11,3.63,4.72,1.13,9.51,.47,14.25,.45,11.04-.04,22.1,.5,33.13-.32,2.22-1.71,2.77-4.19,2.77-6.73-.02-21.77-.11-43.54-.18-65.3-.73-1.33-1.25-2.66,0-3.99,0-.67,0-1.33,0-2-1.17-3.76,.96-5.65,4-7.02l.03-.02c1-1.58,2.31-2.04,4.01-1.12,9.8,.06,19.61,.3,29.41,.09,5.01-.1,8.68,1.36,10.72,6.08,.61,1.44,.34,2.95,.34,4.43,.01,68.92,.01,137.84,0,206.77,0,1.48,.23,2.99-.29,4.45-1.23,4.7-4.58,6.46-9.13,6.51-11.2,.12-22.4,.22-33.59,.33-1.32-.2-2.72-.23-3.47-1.64-3.08-3.55-1.64-7.91-1.74-11.81-.4-16.76-.32-33.53-.42-50.3-.69-5.36-.1-10.74-.33-16.11-.07-1.59,.5-3.27-.54-4.75l-.03-.06c-1.83-1.18-4.19,.83-5.92-.97Z"/><path class="cls-6" d="M643.05,111.4c.71-1.43,.47-2.89,.15-4.36-.14-1.14-.02-2.2,.92-3.01l-.04,.07c.53-1.44,1.73-2.26,2.87-3.14h.02c.54-1.24,1.6-1.66,2.81-1.56,5.39,.42,10.81-.39,16.19,.41,18.65,.02,37.3,1.01,55.95,.35,10.53,.74,21.09-.01,31.63,.35,2.13,.07,4.29-.32,6.4,.31,5.15,.11,10.3,.23,15.45,.33,5.67,.1,9.17,3.4,9.53,9.07,.08,1.32,.02,2.66,.02,3.99,0,48.52,0,97.03,0,145.55,.7,1.29,.03,2.19-.89,3.01-1.05,1.28-2.1,2.57-3.16,3.85-.79,1.69-2.7,1.3-3.96,2.12h0c-1.3,.73-2.31,2.05-4.01,1.97-4.71,1.21-8.62,4.12-12.98,6.08-5.53,3.41-10.61,8.14-17.99,6.05l-.29-.27-.4,.03c-1.91-.31-3.01-1.38-3.14-3.35-1.89-2.97-1.1-6.18-1.09-9.42,.12-37.22,.14-74.45,.02-111.67-.02-6.19-2.39-7.85-7.73-7.76-9.65,.17-19.3,.12-28.95,.02-3.37-.04-5.75,.87-6.35,4.52,.75,1.33,.64,2.66-.02,3.98-.07,10.62-.2,21.24-.21,31.86-.03,35.7-.11,71.4,.08,107.1,.04,6.85-1.49,11.96-8.82,13.78-.75,.19-1.4,.81-2.09,1.24-2.19,2.43-5.29,2.88-8.21,3.71-6.95,2.96-13.9,5.92-20.86,8.89-1.52,1.4-3.25,.55-4.9,.45-3.58,.06-4.16-2.82-5.17-5.27-.3-1.67-1.6-3.2-.68-5.03,.38-1.14,.53-2.27-.12-3.37,.75-1.76,.45-3.61,.45-5.42,.02-63.33,.02-126.66,0-189.99,0-1.81,.31-3.66-.44-5.42Z"/><path class="cls-6" d="M431.07,318.92c-2.75-.5-5.51-.98-7.98-2.4-1.73,.38-3.05-.23-4.05-1.64-.33-.07-.66-.15-.99-.22-.56-.55-1.46-.27-2.01-.84-24.84-9.35-49.68-18.67-74.51-28.05-8.85-3.34-17.59-6.99-26.49-10.18-3.99-1.43-4.82-4.4-4.95-7.84-.15-3.97,.07-7.96,.13-11.94-.2-1.13-.21-2.21,.75-3.05,.73-1.58,1.45-3.17,2.18-4.75,.59-1.66,2.08-2.71,2.89-4.22,2.73-3.5,5.46-7.01,8.19-10.51,.06-1.16,.55-2.03,1.66-2.49,1.05-1.4,2.09-2.8,3.14-4.19,.54-2.19,2.23-3.47,3.86-4.78,.42-.59,.84-1.19,1.26-1.78,.24-1.01,.74-1.82,1.75-2.23,1.98-2.21,2.75-5.28,5.16-7.17,1.49-2.37,3.28-4.53,4.94-6.78,.35-.4,.71-.81,1.06-1.21,4.05-4.82,.11-9.05-1-13.49-1.07-2.42-2.14-4.84-3.22-7.27-1.63-1.31-2.92-2.79-2.5-5.1-1.78-3.63-3.56-7.26-5.34-10.88-1.77-2.44-3.26-5.01-3.91-7.99-2-3.99-3.99-7.98-5.99-11.98-1.74-1.07-1.15-3.17-2.04-4.62-2.43-5.1-5.12-10.09-7.2-15.33-1.5-3.78-1.53-7.93-.99-12.01-.54-2.01-.65-4,.18-5.97,.42-3.3,3.07-5.08,5.01-7.34,.81-1.09,2.05-1.28,3.26-1.54,.59-.09,1.17-.18,1.76-.28,.95-.47,1.93-.85,3.03-.71,13.32-.1,26.64-.19,39.96-.29,14.89-.71,29.78-.22,44.67-.27,7.43-.02,14.87-.52,22.29,.35,3.17,1.86,4.18,4.57,4.08,8.25-.24,8.73-.21,17.48-.01,26.22,.08,3.72-.4,7.06-3.01,9.86-.43,.92-1.27,1.29-2.15,1.6l.05-.03c-2.93,1.7-6.03,2.27-9.25,1.05-2.52-.95-5.18,.09-7.68-.76-4.81-.03-9.61-.98-14.44-.25-2.78-1.03-5.76,.09-8.55-.76-3.67-.1-7.34-.21-11.01-.31-4.62,.55-6.23,2.79-4.01,7.17,.1,.31,.2,.62,.3,.93,2.31,1.57,2.28,4.41,3.55,6.54,2.42,5.7,5.16,11.24,8.52,16.45,1.32,1.23,2.07,2.77,2.48,4.5-.09,1.1,.64,1.78,1.29,2.49,3.04,2.26,3.84,5.72,4.83,9.08,.59,3.03,2.2,5.54,4.11,7.9,1.27,1.04,1.08,2.78,1.92,4.02,.09,.66,.18,1.31,.27,1.97,.49,1.68,.57,3.35-.19,4.99-1.4,2.24-2.79,4.48-4.19,6.72-.79,2.81-2.55,4.82-5.08,6.19-1.92,1.16-2.69,3.21-3.84,4.96-.89,1.48-1.06,3.53-3.2,4.01-1.9,1.21-3.06,3.01-3.96,5.01-.1,1.16-1.11,1.5-1.87,2.05-3.02,3.89-6.03,7.79-9.05,11.68,1.09,3.5,5.24,2.13,7.08,4.44l-.05-.02c1.83,.25,3.61,.62,5.09,1.82,1.31,.42,2.63,.85,3.94,1.27,1.98,.71,4.64-.46,5.93,2.14,.69,1.05,1.8,.68,2.77,.82,1.57,.24,3.38-.16,4.37,1.64,2.3,.8,4.29,2.54,6.94,2.22,1.54,1.02,3.78,.08,5.07,1.81,2.07,1.4,4.36,2.13,6.85,2.23,4.75,.68,9.65,.96,13.1,5.01,.09,.61,.41,.94,1.05,.91,1.13,.69,1.66,1.78,1.95,3.01,0,10.74-.06,21.47,.08,32.21,.04,2.84-.73,5.48-1.2,8.21-1.69,2.81-4.34,1.98-6.82,1.78Z"/><path class="cls-13" d="M994.97,268.41c-3.42-1.65-4.82,1.26-6.53,3.06-11.55,12.2-23.36,24.13-36.09,35.12-21.63,18.68-45.84,32.75-73.27,41.18-28.71,8.83-57.31,18.06-87.2,22.33-10.24,1.46-20.53,1.83-30.86,1.35-.33-.94,.21-1.38,.98-1.67,49.77-7.41,97.84-20.35,142.61-43.91,30.53-16.07,57.75-36.11,77.19-65.28,.01,.92,.03,1.85,.04,2.77,1.8-1.39,4.56,.85,6.07-1.61,1.65,1.64,3.51,3.32,5.85,3.28,4.44-.06,2.67,1.61,1.19,3.38Z"/><path class="cls-13" d="M338.99,371.42c-23.18,1.38-45.66-2.83-67.86-8.82-27.04-7.3-54.21-14.3-79.75-26.17-9.31-4.33-18.34-9.24-26.48-15.59,3.44-1.94,8.82-.61,10.18-6.04,5.89,3.31,11.74,6.7,17.68,9.92,37.43,20.28,77.62,32.57,119.18,40.8,8.31,1.65,16.72,2.83,25.08,4.23,.54,.7,2.46-.22,1.96,1.68Z"/><path class="cls-13" d="M165.09,375.85c15.08,13.02,31.76,23.3,50.58,30.07,27.78,10,56.41,13.23,85.8,11.89,17.66-.8,35.09-3.38,52.58-5.51,.23,.26,.3,.5,.21,.74-.09,.23-.18,.35-.27,.35-27.94,10.05-56.7,11.94-86,8.7-23.17-2.57-45.99-6.65-67.7-15.56-16.41-6.73-31.52-15.52-44.37-27.9,3.72-2.92,4.14-2.74,5.69,3.36,.56-3.02,4.32-2.91,3.47-6.14Z"/><path class="cls-13" d="M746.12,412.38c17.13,2.14,34.19,4.71,51.49,5.37,45.17,1.71,87.84-6.27,126.17-31.62,1.52,3.48-.82,5.27-3.06,7.18-.59,.51-1.94,1.1-.67,2.28-17.55,11.23-37,17.58-57.23,21.61-21.85,4.36-43.92,7.03-66.29,6.32-17.73-.56-34.87-3.99-51.49-10.15-.19-.92,0-1.42,1.07-.99Z"/><path class="cls-13" d="M282.05,513.55c26.52,6.74,52.83,5.87,78.93-2.22,1.07-.5,2.11-.9,2.04,.98-12.62,5.84-26.04,8.49-39.78,9.57-14.53,1.14-29.04,.84-43.37-2.24,2.13-1.52,2.35-3.73,2.17-6.07Z"/><path class="cls-13" d="M217.08,460.77c27.54,15.59,57.27,18.28,88.02,14.87,.7,.48,1.81-.03,2.32,.94-12.44,2.68-25.05,3.19-37.69,2.61-16.63-.77-33.08-2.86-48.83-8.7,1.4-.26,3.37-.3,3.31-2.03-.05-1.44-1.86-1.1-3.11-1.4-3.06-.73-2.22-4.45-4.03-6.29Z"/><path class="cls-13" d="M791.19,475.31c15.05,1.25,30.09,2.05,45.17,.23,9.07-1.1,17.89-3.19,26.59-5.88-.64,3.61,2.47,3.06,4.33,3.9-18.36,5.23-37.13,6.49-56.09,5.43-7.44-.42-14.9-.98-22.19-2.7,.04-1.88,1.17-1.3,2.19-.98Z"/><path class="cls-13" d="M615.18,319.64c0-69.55-.01-139.11-.02-208.66,0-2.33-.02-4.65-.03-6.98,1.46,1.56,.85,3.48,.85,5.25,.03,68.38,.03,136.75,0,205.13,0,1.77,.59,3.69-.8,5.27Z"/><path class="cls-13" d="M643.05,111.4c.15,1.47,.43,2.94,.43,4.4,.02,64.01,.02,128.01,0,192.02,0,1.47-.28,2.94-.43,4.4,0-66.94,0-133.89,0-200.83Z"/><path class="cls-13" d="M514.96,176.43c-.97-5.92-.4-11.88-.41-17.82,0-15.89,.19-31.79,.3-47.68,1.19-.19,2.31-1.6,4.01,.16-4.74,.63-3.82,4.06-3.83,7.03-.03,19.44-.05,38.87-.07,58.31Z"/><path class="cls-13" d="M435.03,97.89c-22.32-.03-44.64-.05-66.96-.08,1.24-1.21,2.82-.82,4.27-.82,19.49-.02,38.97-.02,58.46,0,1.45,0,3.04-.41,4.23,.89Z"/><path class="cls-13" d="M151.04,310.79c-4.67-3.32-9.12-6.92-13.11-11.04,2.23,.63,1.81-4.78,4.02-2.26,1.78,2.02,7.05,1.01,5.51,6.08-.41,1.36,1.29,2.16,2.16,3.1,1.09,1.19,2.71,2.14,1.43,4.12Z"/><path class="cls-13" d="M436.01,272.8c-4.37-1.67-8.74-3.34-13.1-5.01,1.28-2.88,2.98-3.95,6.08-2.05,1.45,.9,3.2,2.54,4.94-.83,1.12-2.18,3.47,2.13,6.25,.73-4.68,1.04-6.54,2.95-4.16,7.16Z"/><path class="cls-13" d="M741.99,282.83c5.02,.9,8.82-2.15,13-3.98,1.65-.72,3.33-1.38,4.99-2.07-.73,1.49,1.45,4.77-3.27,3.84-2.33-.46-5.19,2.35-2.93,6.87-4.39-1.74-8.09-3.2-11.79-4.66Z"/><path class="cls-13" d="M123.1,153.89c-4.98-5.33-9.97-10.66-14.95-15.99,3.75,.82,8.44,.35,8.53,6.21,.02,1.72,1.86,1.66,2.66,2.62,1.77,2.11,5.29,3.32,3.76,7.16Z"/><path class="cls-13" d="M759.96,100.81c-12.68,.08-25.37,.61-38.03-.66,1.62-2.45,3.81-.2,5.62-.32,3.39-.23,6.89-.09,10.36-.13,1.49-.02,2.3,.07,3-1.44,.22-.48,1.99-2.63,2.52,.47,.36,2.08,2.44,1.06,3.77,1.22,4.24,.49,8.6-.89,12.76,.86Z"/><path class="cls-13" d="M564.36,183.99c-1.6,1.36-3.51,.65-5.26,.66-12.47,.07-24.95,.06-37.42,0-1.57,0-3.34,.7-4.7-.78,15.33-.13,30.66-.26,45.98-.36,.46,0,.93,.31,1.4,.48Z"/><path class="cls-13" d="M891.95,466.28c-3.83,.48-7.01,3.21-11,3.18,.87-2.94,.55-6.97,5.86-5.36,1.84,.56,4.03-.02,5.14,2.18Z"/><path class="cls-13" d="M665.98,99.81c-6.32,.57-12.79-1.17-19,1.14-.55-.29-1.15-.9-1.64-.82-1.35,.22-2.79,.67-3.43-.91-.8-1.98,.67-2.21,2.08-1.96,.41,.07,.75,1.48,.98,1.44,6.06-1.1,12.1,1.34,18.13,.08,1.36-.28,2.24-.17,2.9,1.04Z"/><path class="cls-13" d="M443.99,405.62c-1.41-3.9-1.46-8-1.77-12.06,1.19,1.34,2.3,2.73,3.57,4.02,2.82,2.86,1.91,6.17-1.81,8.04Z"/><path class="cls-13" d="M100.89,130.03c-2.58-2.7-5.17-5.39-7.75-8.09,1.44-.59,2.9-.94,3.39,1.09,.23,.96,.55,1.31,1.54,1.36,5.39,.26,5.47,.44,2.82,5.63Z"/><path class="cls-13" d="M346.05,189.13c5.64,8.29,5.67,8.66,1,13.49,.19-3.22,.86-6.44-1.6-9.3-1.11-1.3,.58-2.75,.59-4.19Z"/><path class="cls-13" d="M108.13,137.87c-2.49-1.92-4.48-4.31-6.35-6.8,2.5-1.14,5.79-1.34,7.36,.09,1.66,1.51-.28,4.46-1.01,6.71Z"/><path class="cls-13" d="M738.95,325.63c-2.48,1.46-5.15,2.41-7.97,2.96,2.34-3.4,2.31-3.33-1.61-4.85-.72-.28-1.68-1.39-.72-2.36,1.73-1.75,6.1-.62,6.52,1.85,.44,2.57,1.93,2.55,3.78,2.41Z"/><path class="cls-13" d="M379.03,149.94c-.13-.1-.32-.17-.39-.31-1.1-2.13-3.77-4.36-2.44-6.52,1.43-2.32,4.49-.42,6.84-.35-.58,2.81-2.94,4.63-4.01,7.17Z"/><path class="cls-13" d="M417.05,144.09c5.64-.29,11.31,1.08,16.93-.29-2.72,2.8-5.2,6.54-9.54,2.1-2.06-2.1-5.24,.1-7.38-1.81Z"/><path class="cls-13" d="M837.02,278.9c-2.43,2.21-5.19,3.92-8.07,5.46,2.96-3.34,3.56-8.81,8.89-10.23,1.25,2.09-1.49,3.08-.82,4.76Z"/><path class="cls-13" d="M524.16,370.94c-2.63,2.24-5.26,4.48-7.89,6.72-1.89-2.37-1.06-5.81,1.82-6.49,1.93-.46,4.04-.18,6.07-.23Z"/><path class="cls-13" d="M124.06,286.79c-1.35-1.35-2.7-2.7-4.05-4.05,1.54-.37,3.2-.5,4.59-1.18,1.12-.54,1.85-1.88,3.37-.84,.84,.57,1.08,1.35,.51,2.04-.87,1.06-.32,3.99-3.24,2.67-.16-.07-.78,.88-1.19,1.36Z"/><path class="cls-13" d="M476.02,439.41c-3.44-.53-6.62-1.69-9.45-3.77,5.24-3.12,7.76-2.12,9.45,3.77Z"/><path class="cls-13" d="M464,434.56c-2.9-1.71-5.76-3.49-8.01-6.06,.48-.09,1.11-.02,1.41-.3,3.68-3.44,5.02-2.07,5.27,2.35,.08,1.36,.87,2.67,1.33,4.01Z"/><path class="cls-13" d="M999.51,159.75c.87-4.35,1.31-8.81,3.39-12.85,1.4,2.64-.53,5.48,.87,8.44,.89,1.88-.81,4.83-4.26,4.4Z"/><path class="cls-13" d="M514.02,406.64c2.6,.3,4.32,1.9,5.77,3.9-2.42,.44-4.52,1.48-5.9,3.8-2.65-3.04,.1-5.29,.13-7.7Z"/><path class="cls-13" d="M161.28,400.46c1.95,2.09,3.72,4.3,4.67,7.06-1.66-.47-3.06,2.97-4.69,.54-1.6-2.39-1.25-5.07,.02-7.6Z"/><path class="cls-13" d="M935.3,403.53c1.61-2.88,3.22-5.77,5.58-8.14,1.3,3.32-2.71,6.12-1.04,9.58,.09,.18-1.85,2.88-2.55-.3-.18-.83-1.15-1.06-1.99-1.14Z"/><path class="cls-13" d="M513.49,437.64c-2.51,1.85-5.31,2.84-8.43,2.9,1.57-2.91-1.75-5.79,.02-8.91,3.25,1.57,1.18,4.81,2.41,7.25,1.84-1.09,3.61-3.16,6-1.24Z"/><path class="cls-13" d="M588.87,389.23c1.58-2.93,3.94-5.23,6.15-7.65,1.07,3.95-1.55,6.5-3.77,8.99-1.21,1.36-1.83-.39-2.38-1.33Z"/><path class="cls-13" d="M121.55,304.52l4.31,10.17c-1.87-.29-5.89,2.22-3.75-3.18,.86-2.16-3.31-4.37-.57-6.99Z"/><path class="cls-13" d="M220.97,249.05c-2.31-1.75-4.62-3.51-6.93-5.26,2.52-1,5.12-1.36,8.12-.83-1.08,1.87-2.27,3.82-1.19,6.1Z"/><path class="cls-13" d="M514.94,106.53c-.79-2.79-1.73-5.51-4.03-7.5,1.71-.61,4.47-2.2,4.95-1.67,1.97,2.12,.36,4.49-.67,6.72-.32,.71-.18,1.63-.25,2.45Z"/><path class="cls-13" d="M132.09,277.78c2.18,1.06,3.44,3,4.69,4.93-1.16,.91-4.19-.86-3.63,2.86-1.2-2.7-3.95-4.85-1.06-7.79Z"/><path class="cls-13" d="M436.08,368.57c-1.27-2.34-2.55-4.68-3.82-7.01,2.89-1.06,4.47,1.31,5.76,2.85,1.35,1.62-.36,3.16-1.93,4.16Z"/><path class="cls-13" d="M894.72,235.76c-1.08,1.92-2.76,3.1-4.78,3.86-.15-.77-.05-1.76-.49-2.29-2.01-2.41,.5-3.93,1.54-4.63,1.99-1.36,.9,1.73,2.05,2.11,.6,.2,1.12,.63,1.68,.95Z"/><path class="cls-13" d="M148.09,293.91c2.11,.99,3.67,2.64,5.16,4.36-.72,1.77-1.73,2.73-3.75,1.58-2.65-1.51-2.15-3.67-1.41-5.94Z"/><path class="cls-13" d="M959.82,170.88c-2.64,4.22-5.91,7.87-9.88,10.87,2.36-4.47,4.63-9.02,9.88-10.87Z"/><path class="cls-13" d="M1007.43,134.77c1.17-2.79,2.41-5.55,4.5-7.81,2.26,4.21,1.45,5.61-4.5,7.81Z"/><path class="cls-13" d="M132.11,294.67c-2.03-1.98-4.06-3.96-6.09-5.94,4.64-1.74,5.72-.69,6.09,5.94Z"/><path class="cls-13" d="M187.2,446.68c-3.42,1.57-2.23-1.39-2.59-3.12-.25-1.23,.17-2.43,1.19-1.77,1.62,1.05,3.28,2.66,3.92,4.39,.49,1.34-1.26,.78-2.52,.51Z"/><path class="cls-13" d="M101.04,194.84l.9,10.97c-1.01-2.13-3-3.79-3.07-6.38-.05-1.9-.55-4.01,2.17-4.59Z"/><path class="cls-13" d="M234.08,489.56c3.29,1.4,6.22,3.33,8.78,5.83-3.7-.78-8.59,.23-8.78-5.83Z"/><path class="cls-13" d="M871.98,484.41c2.27-1.47,4.55-2.94,6.82-4.4,.64,4.9-.54,5.66-6.82,4.4Z"/><path class="cls-13" d="M140.09,343.91c1.83,1.93,3.31,4.07,3.95,6.7-4.41,.44-5.07-.67-3.95-6.7Z"/><path class="cls-13" d="M187.05,435.74c3.3,2.37,5.69,5.64,8.39,8.59-5.24,.04-6.14-5.32-9.51-7.61,.37-.33,.75-.66,1.12-.99Z"/><path class="cls-13" d="M565.97,241.86c1.93,6.88,.41,13.91,.87,20.86-1.82-6.89-.31-13.92-.87-20.86Z"/><path class="cls-13" d="M400.01,189.94c-2.09-2.77-3.54-5.88-4.83-9.08,4.53,1.48,6.13,4.51,4.83,9.08Z"/><path class="cls-13" d="M994.11,226.78c.32-2.66,.63-5.32,.95-7.98,1.02-.08,1.51-2.27,2.84-.86,.93,.99,.66,2.41-.23,3.17-1.82,1.55-2.74,3.56-3.56,5.67Z"/><path class="cls-13" d="M83.27,121.89c1.7,1.73,2.8,3.82,3.67,6.05-1.35-.2-2.67,1.73-4.05,.07,2.82-1.87-4.07-4.35,.38-6.12Z"/><path class="cls-13" d="M514.19,249.75c.61-2.94-1.67-6.48,1.83-8.82-.14,1.81-1.87,3.58,.08,5.44,.86,.81,2.33,1.62,1.36,3.22-.96,1.59-2.24-1.31-3.27,.16Z"/><path class="cls-13" d="M887.08,242.11c-2.12,2.15-4.34,4.15-7.13,5.42,.72-3.98,2.68-6.34,7.13-5.42Z"/><path class="cls-13" d="M100.06,181.86c.84,2.61,.97,5.3,.8,8.02-2.61-.06-2.78-.18-1.61-1.73,1.55-2.07,.05-3.13-.92-4.67-1.64-2.6-.08-2.37,1.73-1.62Z"/><path class="cls-13" d="M878.08,249.1c-2.07,2.22-4.53,3.91-7.13,5.44-.25-3.54,2.32-5.5,7.13-5.44Z"/><path class="cls-13" d="M570.95,98.95c-2.16,1.87-3.45,4.23-4,7.02-1.05-.86-3.34-1.64-1.97-3.15,1.53-1.69,2.41-5.09,5.97-3.86Z"/><path class="cls-13" d="M992.15,236.76l1.79-7.97c2.94,3.44,2.51,5.37-1.79,7.97Z"/><path class="cls-13" d="M561.84,315.33c1.16,1.69,4.25,1.97,3.37,4.72-.19,.58-1.96,1.31-2.44,1.03-2.29-1.35-1.2-3.67-.93-5.75Z"/><path class="cls-13" d="M995.09,216.8c-.08-2.7-.05-5.39,.66-8.02,2.8,.3,6.31,.39,1.31,3.52-1.77,1.11,.44,3.79-1.98,4.5Z"/><path class="cls-13" d="M418.07,347.37c-2.69-1.58-5.38-3.16-8.07-4.74,3.1,.88,7.83-1,8.07,4.74Z"/><path class="cls-13" d="M674.78,316.57c2.52-1.71,5.34-2.76,8.21-3.71-1.06,4.94-4.74,4.09-8.21,3.71Z"/><path class="cls-13" d="M383.96,237.75c.62-.68,1.25-1.36,1.87-2.05,1.75,1.16,6.03-.45,5.32,2.58-.71,3.02-3.33-.61-5.2-.5-.66,.04-1.33-.02-1.99-.04Z"/><path class="cls-13" d="M523.05,417.42c1.59,3.85,.89,7.53-.85,11.13-1.25-3.83,1.12-7.38,.85-11.13Z"/><path class="cls-13" d="M331.08,157.89c1.8,2.42,3.09,5.09,3.91,7.99-4.05-1.32-4.58-4.37-3.91-7.99Z"/><path class="cls-13" d="M890.34,460.99c1.83-1.11,2.68-2.54,3.81-3.97-.23,2.05,2.15,3.97,.61,5.57-1,1.04-2.61-.69-4.42-1.61Z"/><path class="cls-13" d="M566.95,107.97c0,1.33,0,2.66,0,3.99-.59-.28-1.16-.72-1.78-.82-3.02-.45-2.27-2.82-1.5-4.06,1.39-2.27,2.01,1.09,3.29,.88Z"/><path class="cls-13" d="M948.82,182.85c-.92,2.52-2.85,4.17-4.92,5.69,.87-2.57-.67-7.2,4.92-5.69Z"/><path class="cls-13" d="M173.07,417.54c.95,1.32,1.91,2.64,2.86,3.96-.48-.08-1.03-.04-1.43-.27-1.82-1.05-1.64,3.88-3.44,1.32-1.4-1.99,1.38-3.29,2.01-5.01Z"/><path class="cls-13" d="M744.16,323.72c-1.17,1.13-2.73,1.29-4.19,1.71-.45-1.71-1.03-4.13,.5-4.76,1.4-.57,3.16,1.12,3.69,3.05Z"/><path class="cls-13" d="M441.11,385.55c-.5-1.95-1-3.89-1.49-5.84,1.87-.27,3.31,.64,3.9,2.21,.74,1.97-1.15,2.7-2.41,3.63Z"/><path class="cls-13" d="M514.87,180.24c-.58-1.12-.51-2.24,0-3.36,2.48-1.71,4.17,.3,4.24,1.9,.18,3.88-3.48-1.16-4.24,1.46Z"/><path class="cls-13" d="M416.04,313.81c.84-.12,1.51,.17,2.01,.84-1.14,3.07-2.8,4.86-6.32,2.69,1.39-1.48,3.61-1.57,4.31-3.54Z"/><path class="cls-13" d="M915.74,215.57q-1.46-5.32,3.9-4.61c-.94,1.95-5.26,.76-3.9,4.61Z"/><path class="cls-13" d="M688.11,347.66c-1.56,1.24-2.89,2.89-5.13,2.95-.37-.96-3.42-1.6,.12-2.98,2.01-.78,3.36,0,5.01,.02Z"/><path class="cls-13" d="M922.82,208.73q-.27-6.4,4.71-5.61c-2.8,.46-3.33,2.9-4.71,5.61Z"/><path class="cls-13" d="M431.01,359.65l-5.06-6.02c3.18,.76,7.24,.77,5.06,6.02Z"/><path class="cls-13" d="M910.19,437.48c1.56-1.71,3.12-3.43,4.68-5.14,1.24,1.26,2.13,2.59-.14,3.62-1.45,.66-3.03,1.03-4.55,1.52Z"/><path class="cls-13" d="M611,346.57c-2.59,2.43-5.19,4.86-7.78,7.28,1.31-3.8,3.02-7.16,7.78-7.28Z"/><path class="cls-13" d="M382,253.86c-2.2-.65-4.43-1.22-6.58-1.98-1.28-.45-2.01-1.3-.5-2.45,2.21,1.72,5.78,1.27,7.08,4.44Z"/><path class="cls-13" d="M1011.93,126.95c1.14-2.7,3.04-4.86,4.99-6.98,1.1,4.3-1.75,5.78-4.99,6.98Z"/><path class="cls-13" d="M452.76,418.15c1.3,.22,2.13,.92,2.54,2.09,.42,1.21-.24,1.92-1.31,2.1-1.71,.28-1.93-1.35-2.36-2.35-.27-.63,.34-1.5,1.14-1.83Z"/><path class="cls-13" d="M396.85,221.72c1.69-2.06,3.39-4.13,5.08-6.19,1.39,4.59-2.07,5.2-5.08,6.19Z"/><path class="cls-13" d="M396.91,259.08c-1.98-.71-3.95-1.43-5.93-2.14,1.29-.34,2.57-.82,3.88-.98,2.63-.32,3.06,.97,2.04,3.12Z"/><path class="cls-13" d="M340.34,176.76c.83,1.7,1.67,3.4,2.5,5.1-4.47-1.14-4.97-2.15-2.5-5.1Z"/><path class="cls-13" d="M560.02,240.83c2.02,.06,4.26-1.29,5.92,.97-.62,.17-1.47,.15-1.82,.55-2.84,3.28-3.65,1.43-4.1-1.53Z"/><path class="cls-13" d="M382.89,157.41c-1.18-2.18-2.37-4.36-3.55-6.54,2.25-.98,2.96,.2,3.12,2.2,.12,1.45,.29,2.89,.43,4.34Z"/><path class="cls-13" d="M984.33,145.05c-1.36,2.3-3.23,4.12-5.41,5.64-.09-3.69,2.52-4.8,5.41-5.64Z"/><path class="cls-13" d="M828.01,284.83c-.78,.99-1.65,1.82-3.05,1.7-.17-1.75-.34-3.5-.51-5.25,.25-.17,.51-.33,.76-.5,.93,1.35,1.86,2.7,2.79,4.04Z"/><path class="cls-13" d="M981.75,260.65c1.35-2.41,2.7-4.81,4.05-7.22,.34,3.35-.2,6.21-4.05,7.22Z"/><path class="cls-13" d="M197.08,445.77c1.52,.98,3.14,1.85,3.84,3.68-5.63,3.29-3.25-1.74-3.84-3.68Z"/><path class="cls-13" d="M103.35,219.73c.76,.91,.69,1.99,.62,3.07-1.89,.01-4.08-.31-3.97-2.48,.07-1.47,2.09-.95,3.35-.59Z"/><path class="cls-13" d="M784.08,262.75c.3-1,.59-2,.89-3.01,1.05-.22,2.1-.45,3.66-.78-1.1,2.31-1.25,4.87-4.55,3.79Z"/><path class="cls-13" d="M972.82,156.9c-.86,2.56-3.02,3.99-4.89,5.67-.19-3.46,1.04-5.7,4.89-5.67Z"/><path class="cls-13" d="M669.08,367.59c.15,1.11-.05,2.07-1.15,2.64-1.17-1.1-3.95-1.66-2.44-3.82,1.12-1.6,2.24,1.06,3.58,1.18Z"/><path class="cls-13" d="M1003.81,123.94c-.24,1.67-1.72,2.32-2.75,3.33-.75-1.83-1.01-3.67-.49-6.14,1.38,1.2,2.31,2,3.24,2.8Z"/><path class="cls-13" d="M109.39,241.66c.48,1.05,.96,2.09,1.45,3.14-1,.27-1.83,2.34-2.75,1.09-1.03-1.4-1.13-3.43,1.3-4.23Z"/><path class="cls-13" d="M210.07,240.8c-1.39-1.18-2.77-2.37-4.16-3.55,.41-.89,.66-2,1.96-1.89,1.82,.15,.91,1.29,.98,2.3,.07,1.02,1.35,1.85,1.23,3.13Z"/><path class="cls-13" d="M311.04,538.52c1.47,.27,2.91,.62,4.06,1.68-.82,.34-1.74,.55-2.42,1.06-1.17,.88-2.29,.62-2.82-.4-.24-.45,.75-1.54,1.19-2.34Z"/><path class="cls-13" d="M105.2,277.49c1.21,.81,2.14,1.86,2.69,3.22-2.05-.25-.42,1.96-1.61,2.38-1.78-1.61-2.46-3.39-1.07-5.6Z"/><path class="cls-13" d="M583.33,396.54c1.22-2.29,2.55-4.51,4.61-6.17,.22,3.37-1.21,5.5-4.61,6.17Z"/><path class="cls-13" d="M171.01,205.01c-1.04-1.03-2.08-2.07-3.11-3.1,.16-.02,.32-.08,.47-.05,1.48,.3,2.48-2.38,3.73-1.07,1.37,1.44-.81,2.75-1.09,4.22Z"/><path class="cls-13" d="M102.87,271.72c0,1.42,.17,2.8,.95,4.04-.98,1.61-1.62,1.22-2.49-.22-1.28-2.11-.5-3.16,1.54-3.83Z"/><path class="cls-13" d="M389.8,230.69c1.07-1.34,2.14-2.67,3.2-4.01-.66,1.6,2.34,1.33,1.54,2.76-1.06,1.9-3.04,1.24-4.74,1.25Z"/><path class="cls-13" d="M636.98,432.47c-1.71,1.54-3.85,2.12-5.99,2.73,.72-3.7,2.8-4.43,5.99-2.73Z"/><path class="cls-13" d="M292.07,297.39c-2.13-.98-4.31-1.9-6.05-3.55,2.5,.36,5.93-.85,6.05,3.55Z"/><path class="cls-13" d="M419.04,314.88c1.42,.36,2.92,.55,4.05,1.64-.62,.84-.59,2.66-1.96,2.3-1.76-.46-2.2-2.19-2.09-3.95Z"/><path class="cls-13" d="M513.87,367.91c.94-.04,1.58,.51,1.76,1.3,.24,1.09-.4,1.84-1.48,2.02-.93,.16-1.57-.5-1.76-1.28-.27-1.11,.41-1.77,1.47-2.04Z"/><path class="cls-13" d="M204.89,468.42c-.62,2.75,1.43,3.79,3.22,4.98-1.37,0-3.1,1.32-3.97-.58-.66-1.44-1.39-3.26,.75-4.4Z"/><path class="cls-13" d="M130.13,324.63c1.06,1.14,1.83,2.41,1.95,4-2.09-.63-6.32-.23-1.95-4Z"/><path class="cls-13" d="M532.09,366.79c-1.02,.5-2.05,1.01-3.07,1.51,.31-1.58,.62-3.15,1.03-5.22,1.64,1.03,1.87,2.35,2.04,3.7Z"/><path class="cls-13" d="M279.9,519.63c-2.34-.18-4.74,.01-6.88-1.26,2.65-1.5,5-1.42,6.88,1.26Z"/><path class="cls-13" d="M978.06,300.69c.57-1.16,1.13-2.31,1.7-3.47,.07,1.65,3.29,2.64,1.21,4.61-1.15,1.08-1.84-.93-2.9-1.14Z"/><path class="cls-13" d="M345.99,203.83c-.87,2.82-2.77,4.9-4.94,6.78,.56-3.05,2.4-5.17,4.94-6.78Z"/><path class="cls-13" d="M387.04,255.66c-1.87-.11-3.55-.77-5.09-1.82,1.55-.78,3.47-.66,5.14-3.41-.16,2.71-1.37,4.06-.05,5.22Z"/><path class="cls-13" d="M972.23,313.7c.7-2.1,1.29-4.25,2.7-6.03,1.47,3.07-.11,4.77-2.7,6.03Z"/><path class="cls-13" d="M217.97,469.72c-2.03-.6-4.18-.91-5.9-2.29,2.99-1.88,4.72-.5,5.9,2.29Z"/><path class="cls-13" d="M818.09,291.05c-.92,.77-1.67,1.9-3.14,1.52-.05-1.03-2.33-1.66-.87-2.75,1.49-1.11,2.85,.21,4.02,1.23Z"/><path class="cls-13" d="M225.07,483.51c2.07,.15,3.38,1.51,4.65,2.94-2.27,.16-4.85,.8-4.65-2.94Z"/><path class="cls-13" d="M947.25,386.56c.59-1.29,1.38-2.42,2.61-3.19,.15,1.2,2.18,1.87,1.25,3.25-1.14,1.7-2.55-.17-3.86-.06Z"/><path class="cls-13" d="M144.06,289.92c.88,.32,1.54,.84,1.72,1.81-1.34,.6-1.92,2.61-3.88,2.36-.65-2.33,1.73-2.71,2.15-4.17Z"/><path class="cls-13" d="M951.81,357.55c.98-1.47,1.96-2.94,2.95-4.4,1.14,2.88,1.75,5.41-2.95,4.4Z"/><path class="cls-13" d="M193.95,227.12c-1.28-1.11-2.57-2.22-3.85-3.33,1.07,1.36,7-2.9,3.85,3.33Z"/><path class="cls-13" d="M511.4,382.7c-1.84,1.56-4.08,2.18-6.38,2.67,.97-3.65,3.75-2.99,6.38-2.67Z"/><path class="cls-13" d="M617.57,437.56c-4.04,1.21-8.08,1.18-12.12,0,4.04,0,8.08,0,12.12,0Z"/><path class="cls-13" d="M93.17,142.76c1.15,1.52,1.41,3.33,1.7,5.13-2.47-1.08-4.51-2.3-1.7-5.13Z"/><path class="cls-13" d="M996.09,195.83c.11-2.69-.47-5.43,.67-8.03-.08,2.69,1.61,5.52-.67,8.03Z"/><path class="cls-13" d="M109.17,282.54c1.77,1.33,2.71,3.26,3.69,5.16-2.32-.94-4.94-1.67-3.69-5.16Z"/><path class="cls-13" d="M153.91,186.92c-1.29-.71-2.28-1.71-2.94-3.02,1.89-.08,3.52,1.65,5.65,.31-.22,2.11-1.78,2.05-2.71,2.71Z"/><path class="cls-13" d="M990.75,279.33c.63-1.59,1.67-2.85,3.1-3.79,.52,3.08-.4,4.2-3.1,3.79Z"/><path class="cls-13" d="M209.08,455.68c1.56,.53,3.01,1.21,3.79,2.79-3.98,2.75-3.26-.87-3.79-2.79Z"/><path class="cls-13" d="M596.09,345.79c.19-.82,.58-1.66,1.5-1.55,.98,.12,1.85,.88,1.8,1.92-.04,1.08-.99,.95-1.85,.89-.89-.05-1.61-.11-1.46-1.27Z"/><path class="cls-13" d="M944.07,377.9c-.37,.96-1.07,1.53-2.05,1.79-.5-1.34-.99-2.68-1.6-4.32,2.28-.37,2.93,1.13,3.65,2.54Z"/><path class="cls-13" d="M493.23,387.08c-2.99,.63-3.88-.53-4.61-1.83-.1-.18,.45-1.03,.71-1.03,1.78,0,2.09,1.71,3.9,2.86Z"/><path class="cls-13" d="M967.4,338.66c-.14,1.39-.83,2.13-1.82,2.35-.73,.17-1.3-.54-1.07-1.21,.29-.85,0-2.22,1.16-2.4,.53-.08,1.22,.86,1.73,1.25Z"/><path class="cls-13" d="M142.05,374.93c1.41,.87,2.44,2.02,2.88,3.65-3.23,.57-4.26-.59-2.88-3.65Z"/><path class="cls-13" d="M164.95,320.88c-2.33-.92-4.25-2.43-6.01-4.17,2.98,0,5.15,1.14,6.01,4.17Z"/><path class="cls-13" d="M906.25,215.88c1,.06,2.09,.42,1.93,1.22-.15,.73-1.15,1.48-1.94,1.77-.29,.11-1.41-1-1.52-1.66-.17-.94,.86-1.17,1.54-1.33Z"/><path class="cls-13" d="M323.05,141.29c1.29,1.27,2.04,2.78,2.04,4.62-2.65,.58-2.81,.2-2.04-4.62Z"/><path class="cls-13" d="M844.36,273.88c-1.25,1.25-2.42,2.63-4.39,2.71,.4-2.62,.99-4.93,4.39-2.71Z"/><path class="cls-13" d="M518.81,433.48c-.35,1.52-1.52,2.2-2.82,2.74-.92-1.19-1.03-2.5,.03-3.53,1.18-1.16,1.63,1.28,2.79,.8Z"/><path class="cls-13" d="M708.3,337.74c-1.27,1.01-2.57,1.93-4.32,1.73,.01-3.52,.06-3.54,4.32-1.73Z"/><path class="cls-13" d="M924.62,208.81c-.83,1.63-2.06,2.85-3.69,3.68,.76-1.52-.33-3.83,2-4.67,.32,.73,.95,.96,1.68,.99Z"/><path class="cls-13" d="M586.26,357.7c-1.44,1.51-3.22,2.37-5.24,2.78,1.42-1.54,2.17-4.34,5.24-2.78Z"/><path class="cls-13" d="M808.1,296.74c-1.48,1.36-3.19,2.31-5.14,2.8,.44-3.27,2.46-3.64,5.14-2.8Z"/><path class="cls-13" d="M284.02,292.82c-1.67-1.03-3.35-2.07-5.02-3.1,2.85-.88,4.8-.28,5.02,3.1Z"/><path class="cls-13" d="M942.05,379.66c-.97,1.65-2.48,2.7-4.12,3.59,1.28-1.3-.06-5.6,4.12-3.59Z"/><path class="cls-13" d="M738.15,279.23c1.05,1.12,2.1,2.23,3.14,3.35-1.24,.64-2.53,.93-3.58-.22-1.03-1.12,.25-2.09,.44-3.13Z"/><path class="cls-13" d="M150.05,384.9c1.03,.6,1.83,1.36,1.88,2.65-1.17-.69-1.66,2.37-2.97,.57-1.1-1.51,.56-2.2,1.09-3.22Z"/><path class="cls-13" d="M579.17,404.52c.44-2.02,1.25-3.86,2.68-5.39,1.17,2.82,.37,4.66-2.68,5.39Z"/><path class="cls-13" d="M416.06,265.56c-1.79-.32-3.57-.66-5.07-1.81,1.24-.12,2.49-.2,3.73-.38,2.23-.33,1.98,.79,1.34,2.19Z"/><path class="cls-13" d="M404.04,261.53c-1.52-.38-3.12-.53-4.37-1.64,3.12-3.88,3.53-.56,4.37,1.64Z"/><path class="cls-13" d="M310.97,252.74c.13,1.11-.03,2.15-.75,3.05-1.15-.58-2.42-1.17-1.66-2.78,.57-1.21,1.55-.63,2.41-.27Z"/><path class="cls-13" d="M119.52,138.34c-.25,.93-.77,1.33-1.48,1.28-.93-.06-1.51-.66-1.64-1.55-.1-.7,.35-1.61,.95-1.4,.85,.28,1.51,1.13,2.16,1.67Z"/><path class="cls-13" d="M107.12,235.73c1.13,1.49,1.59,3.24,1.89,5.04-5.15,.01-.78-3.54-1.89-5.04Z"/><path class="cls-13" d="M332.89,221.8c-.98,1.84-2.04,3.62-3.86,4.78-.91-3.36,1.69-3.9,3.86-4.78Z"/><path class="cls-13" d="M163.06,196.93c-1.65-1.69-3.3-3.39-4.95-5.08,2.79,.58,4.52,2.21,4.95,5.08Z"/><path class="cls-13" d="M563.78,176.16c.92-.02,1.65,.4,1.61,1.32-.03,.62,.05,1.83-1.2,1.5-.68-.18-1.63-.64-1.8-1.19-.25-.82,.6-1.34,1.39-1.63Z"/><path class="cls-13" d="M967.95,324.64c.2-1.84,.9-3.48,1.99-4.96,3.07,3.15-.69,3.56-1.99,4.96Z"/><path class="cls-13" d="M98.23,165.38c1.14,1.7,.89,3.62,.82,5.5-5.4-1.07,.4-3.81-.82-5.5Z"/><path class="cls-13" d="M267.02,520.35c.03,1,.06,1.99,.09,2.99-1.01,.34-2.22,1.21-2.55-.68-.33-1.9,.66-2.59,2.47-2.31Z"/><path class="cls-13" d="M625.23,436.56c-1.28,.98-2.74,1.01-4.24,.8-.5-.9-.84-1.92,.03-2.67,1.44-1.25,1.13,.96,1.95,1.12,.77,.15,1.51,.49,2.26,.75Z"/><path class="cls-13" d="M643.17,315.6c.23,1.68,.45,3.36,.68,5.03-.33-1.66-4.29-2.84-.68-5.03Z"/><path class="cls-13" d="M394.06,143.09c2.86,.13,5.8-.6,8.55,.76-2.85-.26-5.83,.94-8.55-.76Z"/><path class="cls-13" d="M280.07,527.56c1.67,.59,3.33,1.18,5,1.77-1.82-.17-4.49,2.08-5-1.77Z"/><path class="cls-13" d="M133.05,330.91c1.05,.61,1.39,1.53,1.2,2.7-.87-.06-1.06,1.94-2.1,.89-1.47-1.49,.26-2.46,.9-3.59Z"/><path class="cls-13" d="M265.06,507.46c.88-.15,1.47,.34,2.01,.93-.97,2.37-2.71,1.29-4.33,1.3,.06-1.89,2.04-1.04,2.33-2.23Z"/><path class="cls-13" d="M219.09,479.55c1.96,.29,3.45,1.35,4.65,2.86-2.85,1.16-3.41-1.41-4.65-2.86Z"/><path class="cls-13" d="M102.14,210.73c.87,1.94,.96,3.99,.83,6.07-2.5-1.72-.96-3.99-.83-6.07Z"/><path class="cls-13" d="M193.44,452.88c.36-.29,.79-.88,1.33-1.01,.73-.17,1.17,.45,1.13,1.17-.03,.72-.52,1.2-1.23,1.23-.72,.03-1.19-.36-1.24-1.39Z"/><path class="cls-13" d="M934.91,412.25c0,.82,.12,1.74-1.16,1.66-.57-.04-1.58,.32-1.47-.6,.08-.68,.81-1.42,1.43-1.87,.78-.56,1.1,.09,1.19,.82Z"/><path class="cls-13" d="M431.07,318.92c2.39-.15,4.9,.19,6.82-1.78-1.43,3.82-4.14,2.72-6.82,1.78Z"/><path class="cls-13" d="M111.62,267.06c-.33,1.18-.98,1.91-2.01,2.09-.26,.05-.96-.62-.92-.89,.13-1.05,.88-1.75,1.9-1.96,.29-.06,.71,.5,1.03,.75Z"/><path class="cls-13" d="M776.96,268.72c1.32-.71,2.64-1.41,3.96-2.12-.02,3.14-1.41,3.71-3.96,2.12Z"/><path class="cls-13" d="M772.96,270.69c1.11-1.11,2.45-1.76,4.01-1.98-1.56,.2-.65,5.4-4.01,1.98Z"/><path class="cls-13" d="M158.04,395.88c1.07,.57,1.67,1.46,1.85,2.65-1.55-.78-3.92,.4-4.8-2,1.02-.03,2.1,.17,2.95-.65Z"/><path class="cls-13" d="M117.07,279.8c-1.02-1.02-2.04-2.03-3.06-3.05,3.11-1.07,4.13-.06,3.06,3.05Z"/><path class="cls-13" d="M311.64,279.44c-2.79-.77-4.17-1.25-6.09-3.54,2.67,.85,4.07,1.36,6.09,3.54Z"/><path class="cls-13" d="M986.81,284.66c.29-.35,.57-.7,.86-1.04,1.22,.24,2.72,.16,2.63,2.02-.02,.41-.44,.81-.67,1.21-.94-.73-1.88-1.45-2.82-2.18Z"/><path class="cls-13" d="M663.96,380.56c-.17,2.09-.59,4.09-1.97,5.77-.51-2.32-.22-4.37,1.97-5.77Z"/><path class="cls-13" d="M951.93,380.56l1.97-2.07c.73,.91,1.45,1.82,2.21,2.77-1.67,.72-2.9-.13-4.18-.7Z"/><path class="cls-13" d="M984.55,295.37c1.81-2.13,3.13-2.84,5.22-2.93-1.08,1.8-2.61,2.15-5.22,2.93Z"/><path class="cls-13" d="M611.23,357.6c.56-1.66,1.3-3.22,2.6-4.45,1.39,2.8-.15,3.89-2.6,4.45Z"/><path class="cls-13" d="M1023.66,120.38c-.29,.24-.77,.95-1.2,.93-.45-.03-1.11-.71-1.21-1.21-.19-.9,.4-1.59,1.37-1.49,.7,.07,1.04,.7,1.04,1.78Z"/><path class="cls-13" d="M541.17,363.64c-1.94,.98-3.86,2-6.14,1.81,1.74-1.65,3.6-2.88,6.14-1.81Z"/><path class="cls-13" d="M573.04,362.69c-2.02,.8-4.05,1.25-6.11,.13,2.02-.75,4.06-.52,6.11-.13Z"/><path class="cls-13" d="M720.27,332.74c-1.24,1.04-2.7,1.57-4.29,1.78,.23-3.47,2.55-1.93,4.29-1.78Z"/><path class="cls-13" d="M924.41,427.46c-.03,1.04-.45,1.59-1.18,1.45-.57-.11-1.06-.63-1.58-.97,.57-.57,1.15-1.14,1.72-1.71,.39,.47,.78,.93,1.04,1.24Z"/><path class="cls-13" d="M1003.09,145.9c.17-1.82,.76-3.48,1.85-4.96,1.07,2.28-.11,3.72-1.85,4.96Z"/><path class="cls-13" d="M575,97.82c-1.34,.37-2.67,.75-4.01,1.12,.64-2.86,1.77-3.97,4.01-1.12Z"/><path class="cls-13" d="M324.06,543.53c1.4,.57,2.79,1.14,4.19,1.71-2.09,1.13-3.93,1.63-4.19-1.71Z"/><path class="cls-13" d="M605.84,366.51c.46-1.2,.96-2.38,2.08-3.14-.37,1.26,2.68,4.79-2.08,3.14Z"/><path class="cls-13" d="M127.05,157.97c-1.01-1.01-2.03-2.02-3.04-3.04,4.21-2.18,2.01,2.04,3.04,3.04Z"/><path class="cls-13" d="M965.04,331.62c.26-1.48,.7-2.89,1.74-4.04,2.29,2.58-.82,2.84-1.74,4.04Z"/><path class="cls-13" d="M140.05,171.99c-1.31-1.37-2.63-2.74-3.94-4.11,2.4,.33,3.77,1.65,3.94,4.11Z"/><path class="cls-13" d="M393.89,178.37c-.83-1.5-1.65-3-2.48-4.5,2.69,.48,2.73,2.41,2.48,4.5Z"/><path class="cls-13" d="M256.99,508.91c-.34-1.38-.97-2.73,.33-3.2,.44-.16,1.16,.42,1.74,.66-.69,.85-1.39,1.7-2.08,2.54Z"/><path class="cls-13" d="M883.66,477.3c.87-1.01,1.93-1.68,3.29-1.82,.31,.85,.93,1.74-.24,2.44-1.2,.72-2.04-.36-3.05-.62Z"/><path class="cls-13" d="M468.11,322.45c.97,1.06,1.94,2.13,2.91,3.19-2.02-.1-4.38,.09-2.91-3.19Z"/><path class="cls-13" d="M950.62,371.54c-.5,1.31-1.4,2.23-2.73,2.72-.4-2.21,.51-3.12,2.73-2.72Z"/><path class="cls-13" d="M773.94,312.65c-1.48,1.09-3.11,1.81-4.97,1.96,1.01-2.3,2.73-2.78,4.97-1.96Z"/><path class="cls-13" d="M995.97,205.82c.03-1.66,.05-3.32,.08-4.98,2.86,1.7,1.43,3.34-.08,4.98Z"/><path class="cls-13" d="M811.35,289.03c-.15,.97-.68,1.46-1.33,1.36-.54-.09-1.28-.55-1.43-1.02-.22-.68,.4-1.23,1.13-1.1,.59,.11,1.13,.51,1.63,.76Z"/><path class="cls-13" d="M406.12,208.81c.06-1.66,.12-3.33,.19-4.99,2.68,1.76,1.05,3.37-.19,4.99Z"/><path class="cls-13" d="M603.23,353.84c-.87,1.34-1.85,2.53-4.26,2.95,.92-1.61,2.3-2.61,2.08-4.18,.73,.41,1.45,.82,2.18,1.23Z"/><path class="cls-13" d="M579.36,354.32c-.28,.66-.76,1.1-1.48,.86-.72-.24-.93-.91-.62-1.54,.16-.33,.72-.67,1.07-.65,.7,.05,1.09,.57,1.03,1.33Z"/><path class="cls-13" d="M904.81,443.12c.64-1.22,1.57-2.15,2.79-2.79,.48,2.17-.61,3.27-2.79,2.79Z"/><path class="cls-13" d="M454.02,426.53c-1.4-1.04-2.42-2.4-3.19-3.95,.73-.03,1.47-.05,2.2-.08,.69,1.26,1.16,2.56,.99,4.03Z"/><path class="cls-13" d="M170.15,413.36c.97,1.39,1.94,2.77,2.91,4.16-2.23-.51-4.21-1.18-2.91-4.16Z"/><path class="cls-13" d="M315.04,107.97c-.06,1.99-.12,3.98-.18,5.97-2-2.05-1.34-4.02,.18-5.97Z"/><path class="cls-13" d="M957.18,348.64c.58-1.01,1.15-2.02,1.73-3.03-.03,1.32,2.22,3.94-1.73,3.03Z"/><path class="cls-13" d="M93.72,114.01s-.52,.35-1.12,.51c-.74,.2-1.33-.22-1.09-.96,.16-.5,.79-.96,1.31-1.19,.5-.22,.86,.2,.9,1.65Z"/><path class="cls-13" d="M568.99,324.84c1.16,.55,2.32,1.09,3.47,1.64-1.66,.51-3.78,2-3.47-1.64Z"/><path class="cls-13" d="M253.91,273.21c-1.08-.78-2.16-1.55-3.23-2.33,2.5-1.19,3.45-.24,3.23,2.33Z"/><path class="cls-13" d="M505.11,440.53c-1.54,1.17-3.32,.99-5.09,.87,1.27-2.76,3.43-.38,5.09-.87Z"/><path class="cls-13" d="M433.93,143.82c.72-.53,1.43-1.06,2.15-1.6,.75,1.09,.6,2.14-.46,2.82-.22,.14-1.11-.79-1.69-1.22Z"/><path class="cls-13" d="M481.53,400.24c-.41-.8-.82-1.33-.94-1.91-.13-.69,.3-1.38,1.04-1.01,.46,.23,.74,1.05,.84,1.65,.05,.29-.49,.69-.95,1.27Z"/><path class="cls-13" d="M932.11,387.61c-1.1,1.36-2.37,2.45-4.17,2.76,.48-2.28,2.3-2.56,4.17-2.76Z"/><path class="cls-13" d="M649.02,325.9c1.63-.15,3.27-.3,4.9-.45-1.35,3.27-3.21,.92-4.9,.45Z"/><path class="cls-13" d="M785.12,308.12c-.62,.61-1.3,.97-2.16,.45-.32-.84-1.07-1.93,.36-2.27,1.17-.28,1.42,.98,1.8,1.82Z"/><path class="cls-13" d="M247.08,268.41c-1.32-.57-2.49-1.33-3.32-2.55,2.82-1.38,2.78,.96,3.32,2.55Z"/><path class="cls-13" d="M655.71,408.51c-.44,1.29-.37,2.82-1.73,3.68-.42-1.69-1.08-3.5,1.73-3.68Z"/><path class="cls-13" d="M140.03,368.57c-.07,.99-.14,1.98-.2,2.98-1.04-.77-2.1-1.57-1.43-3.06,.08-.18,1.07,.04,1.63,.08Z"/><path class="cls-13" d="M755.02,319.78c-.46,.84-1.23,.88-2.05,.82-.23-.73-1.02-1.61-.02-2.17,1.28-.71,1.62,.52,2.07,1.35Z"/><path class="cls-13" d="M778.96,310.65c-.52,.64-1.16,.99-2.01,.87-.27-.7-.99-1.52-.04-2.08,1.21-.72,1.59,.42,2.05,1.21Z"/><path class="cls-13" d="M954.89,367.56c-.92,.99-1.55,2.3-2.99,2.7-.83-2.92,1.74-2.08,2.99-2.7Z"/><path class="cls-13" d="M441.87,390.01c-.82-1.04-.76-2.25-.67-3.46,4.87,.25,.1,2.38,.67,3.46Z"/><path class="cls-13" d="M997.13,178.85c-.09-1.53-.3-3.07,.64-4.45,.76,1.62,1.69,3.26-.64,4.45Z"/><path class="cls-13" d="M259.07,504.51c1.28,.23,2.43,.72,3.3,1.73-1.07,.88-2.13,1.98-3.3,.13,0-.62,0-1.24,0-1.86Z"/><path class="cls-13" d="M774.75,275.28c-.6,1.85-1.88,1.67-2.79,2.47-.21-2.22,1.27-2.01,2.79-2.47Z"/><path class="cls-13" d="M790.79,259.53c.95-.08,1.19,.43,1.05,.86-.19,.57-.53,1.26-1.01,1.52-.54,.29-.85-.38-.74-.84,.14-.59,.5-1.12,.71-1.54Z"/><path class="cls-13" d="M995.61,132.93c-.48,1.34-1.24,2.41-2.71,2.79-.97-2.74,1.47-2.19,2.71-2.79Z"/><path class="cls-13" d="M510.82,325.56c.71-.71,1.41-1.42,2.12-2.12,.17,.87,1.32,1.7,.46,2.57-.87,.87-1.7-.28-2.57-.45Z"/><path class="cls-13" d="M643.86,427.47c-.25,1.54-1.62,1.87-2.7,2.5-.03-1.84-.08-3.69,2.7-2.5Z"/><path class="cls-13" d="M406.03,201.85l-1.92-4.02c2.64,.39,1.73,2.46,1.92,4.02Z"/><path class="cls-13" d="M987.88,261.81c.29-1.93,1.09-2.85,2.75-3.67-.13,2.07-1.41,2.84-2.75,3.67Z"/><path class="cls-13" d="M238.12,258.18c-.46-.32-1.47-.31-1.15-1.11,.17-.42,1.06-.68,1.65-.73,.28-.03,.9,.62,.89,.93-.04,.73-.61,1.09-1.39,.92Z"/><path class="cls-13" d="M291.33,289.07c1.46,.75,2.34,1.38,2.43,2.69-1.83,.11-2.23-.91-2.43-2.69Z"/><path class="cls-13" d="M958.64,354.41c-.75-1.39-1.26-2.29-.77-3.51,1.28,.74,1.94,1.57,.77,3.51Z"/><path class="cls-13" d="M629.99,435.4c-.89,.65-1.85,1.1-2.99,.91,.08-.97,.26-2,1.32-2.25,.87-.2,1.32,.62,1.68,1.33Z"/><path class="cls-13" d="M316.04,243.77c-.12,1.98-1.58,3.05-2.89,4.22-.14-2.16,1.25-3.28,2.89-4.22Z"/><path class="cls-13" d="M989.2,245.77c.55-1.39,1.11-2.79,1.66-4.18,.12,1.66,1.63,3.87-1.66,4.18Z"/><path class="cls-13" d="M752.35,320.79c-1.27,1.04-2.77,1.48-4.36,1.67,1.02-1.68,2.18-3,4.36-1.67Z"/><path class="cls-13" d="M901.81,229.79c-.4,1.49-1.61,2.12-2.87,2.68-.19-2.12,.91-2.86,2.87-2.68Z"/><path class="cls-13" d="M875.9,466.4c1.1,.25,2.78,.19,2.32,1.73-.44,1.44-1.46,.67-1.98-.3-.22-.41-.23-.93-.34-1.44Z"/><path class="cls-13" d="M335.9,217.79c-.29,.97-.82,1.76-1.75,2.23,.08-.91-2.01-.98-.93-2.17,.75-.84,1.77-.61,2.68-.06Z"/><path class="cls-13" d="M466.99,104.97c0,1,0,2-.01,2.99-1.19-.67-2.32-1.49-1.67-3.04,.31-.74,1.11-.09,1.69,.04Z"/><path class="cls-13" d="M914.27,218.94c-.43,1.01-1.17,1.67-2.23,1.98-.19-.85-1.4-1.69-.39-2.54,.89-.75,1.73,.38,2.62,.56Z"/><path class="cls-13" d="M899.93,447.45c.67-.66,1.35-1.31,2.02-1.97,1.05,2.42,.28,2.98-2.02,1.97Z"/><path class="cls-13" d="M897.88,449.27c.69-.61,1.37-1.22,2.06-1.83-.17,1.22-.26,2.49-1.58,3.12-.16-.43-.32-.86-.47-1.29Z"/><path class="cls-13" d="M892.75,453.38c.75-1.25,1.93-1.99,3.2-2.62-.24,1.88-1.35,2.7-3.2,2.62Z"/><path class="cls-13" d="M960.17,342.62l1.65-3.26c1.01,1.87,.63,3.05-1.65,3.26Z"/><path class="cls-13" d="M329.38,221.77c-.32-.54-.7-.91-.75-1.32-.08-.71,.39-1.2,1.1-1.05,.33,.07,.77,.64,.75,.97-.01,.35-.5,.68-1.1,1.4Z"/><path class="cls-13" d="M912.07,220.89c-.75,1.24-1.55,2.43-3.13,2.7,.2-1.88,1.24-2.79,3.13-2.7Z"/><path class="cls-13" d="M883.98,459.45c.98-.7,1.95-1.41,2.93-2.11,.53,2.78-1.15,2.52-2.93,2.11Z"/><path class="cls-13" d="M873.64,465.31c.87-1.01,2.03-1.49,3.31-1.74-.33,.96-.67,1.91-1,2.87-.77-.37-1.54-.75-2.31-1.12Z"/><path class="cls-13" d="M325.89,230.77c.03,1.21-.81,1.86-1.66,2.49-.13-.86-1.14-1.62-.39-2.56,.65-.81,1.37-.2,2.04,.07Z"/><path class="cls-13" d="M869.67,467.14c1.09-.52,2.19-1.05,3.28-1.57,.28,3.38-1.8,1.86-3.28,1.57Z"/><path class="cls-13" d="M595.99,350.55c-.92,.75-1.47,2.08-2.98,1.92,.3-1.71,1.1-2.66,2.98-1.92Z"/><path class="cls-13" d="M439.01,276.73c-.65-1-1.3-2.01-1.95-3.01,1.64,.37,2.96,.94,1.95,3.01Z"/><path class="cls-13" d="M214.52,234.98c-.93,.76-1.21,1.11-1.32,1.06-.75-.32-1.4-.79-1.39-1.71,0-.07,.58-.27,.82-.19,.62,.2,1.2,.53,1.89,.84Z"/><path class="cls-13" d="M866.83,468.37c.74-.94,1.85-1.05,2.9-1.28-.29,1.96-.76,3.49-2.9,1.28Z"/><path class="cls-13" d="M894.19,471.39c.26-1.34,.17-2.65-.37-3.91,2.74,1.06,1.47,2.49,.37,3.91Z"/><path class="cls-13" d="M98.85,212.45c-.35,.47-.73,.98-1.12,1.5-.17-.36-.56-.84-.45-1.06,.26-.53,.77-.94,1.18-1.39,.11,.28,.23,.56,.39,.95Z"/><path class="cls-13" d="M122.33,278.83c-.29-.61-.6-1.01-.66-1.44-.1-.73,.37-1.21,1.07-1.09,.33,.06,.79,.62,.79,.95,0,.34-.49,.68-1.21,1.58Z"/><path class="cls-13" d="M224.12,251.47c-.72-.55-1.43-1.11-2.15-1.66,.72-.12,1.56-.53,2.12-.29,.97,.44,.37,1.28,.03,1.95Z"/><path class="cls-13" d="M605.94,435.76c-.19-.41-.54-.83-.52-1.23,.03-.56,.61-.8,1-.45,.29,.26,.34,.85,.39,1.3,0,.08-.49,.22-.87,.37Z"/><path class="cls-13" d="M108.07,286.38c-.54,.32-.91,.7-1.32,.75-.71,.08-1.21-.39-1.05-1.1,.07-.33,.64-.76,.97-.75,.35,.01,.68,.5,1.4,1.1Z"/><path class="cls-13" d="M146.18,353.38c1.02,.84,2.04,1.69,1.89,3.21-1.28-.69-3.2-1-1.89-3.21Z"/><path class="cls-13" d="M228.97,255.04c-1.21-.46-2.28-1.13-3.01-2.24,1.62-.07,3.13,0,3.01,2.24Z"/><path class="cls-13" d="M646.95,100.96c-.96,1.05-1.92,2.09-2.87,3.14-.07-1.99,.94-2.98,2.87-3.14Z"/><path class="cls-13" d="M891.79,473.01c.67-.33,1.33-.67,2-1,.06,.7,1.03,1.5,.13,2.06-1.02,.63-1.68-.16-2.13-1.06Z"/><path class="cls-13" d="M590.66,354.56c-.54,1.11-1.35,1.84-2.66,1.86,.26-1.51,.5-3.06,2.66-1.86Z"/><path class="cls-13" d="M640.07,430.67c-.76,1.05-1.81,1.62-3.08,1.8,.96-.71,.84-3.26,3.08-1.8Z"/><path class="cls-13" d="M472.4,98.13c-.81,.52-1.61,1.03-2.42,1.55-1.02-3.36,.99-2,2.42-1.55Z"/><path class="cls-13" d="M180.17,427.26c.86,.53,1.59,1.14,1.68,2.25-.66,.24-1.52,1.18-1.95,.39-.35-.63,.15-1.74,.27-2.63Z"/><path class="cls-13" d="M811.61,294.64c-.5,1.17-1.64,1.36-2.65,1.75,.28-1.49,.6-2.93,2.65-1.75Z"/><path class="cls-13" d="M551.44,361.74c-1.37,.85-2.88,.86-4.41,.72,1.26-1.52,2.76-1.59,4.41-.72Z"/><path class="cls-13" d="M941.05,190.92c-.98-.05-1.96-.1-3.01-.15,1.14-1.1,2.25-2.71,2.97,.19l.04-.04Z"/><path class="cls-13" d="M635.57,425.66c.35,.32,.71,.63,.7,.65-.38,.5-.72,1.11-1.24,1.4-.66,.38-.92-.22-.68-.7,.26-.52,.8-.91,1.22-1.36Z"/><path class="cls-13" d="M867.89,487.24c.37-.94,1.23-1.21,2.06-1.52-.19,.73-.18,1.65-.63,2.15-.48,.52-1.1-.04-1.43-.62Z"/><path class="cls-13" d="M150.06,182.94c-.66-.69-1.33-1.38-1.99-2.07,.73-.2,1.45-.94,2.2-.15,.73,.77-.01,1.49-.21,2.21Z"/><path class="cls-13" d="M248.04,501.05c-.54,.32-.91,.7-1.32,.75-.71,.08-1.21-.39-1.05-1.1,.07-.33,.64-.76,.97-.75,.35,.01,.68,.5,1.4,1.1Z"/><path class="cls-13" d="M239.1,262.54c-.74-.57-1.48-1.14-2.22-1.71,.74-.13,1.62-.57,2.19-.31,1.01,.45,.34,1.33,.04,2.02Z"/><path class="cls-13" d="M97.74,266.25c-.75-.14-1.29-.53-1.01-1.29,.11-.31,.91-.72,1.08-.61,.51,.34,.87,.91,1.29,1.39-.46,.17-.92,.35-1.36,.52Z"/><path class="cls-13" d="M159.06,369.87c.94,.22,1.54,.78,1.73,1.74-.58,.11-1.3,.49-1.71,.28-1.01-.53-.39-1.33-.02-2.02Z"/><path class="cls-13" d="M715.07,334.87c-.16,.59-.57,.7-1.1,.58-.67-1.07-.73-2.61,.37-2.8,1.19-.2,.39,1.46,.73,2.22Z"/><path class="cls-13" d="M99.05,265.77c1.11-.24,2.17-.46,3.83-.82-1.42,1.97-2.49,2.13-3.83,.82Z"/><path class="cls-13" d="M644.12,104.03c-.31,1-.61,2.01-.92,3.01-2.12-1.74-.33-2.29,.92-3.01Z"/><path class="cls-13" d="M99.23,172.83c.8,1.25,.75,2.62,.61,4.01-.68-1.26-1.74-2.47-.61-4.01Z"/><path class="cls-13" d="M991.73,136.91c-.09,1.13-.57,1.88-1.82,1.9-.24-.66-.88-1.31-.2-2.04,.7-.75,1.36-.13,2.01,.14Z"/><path class="cls-13" d="M328.1,98.11c-.91,.66-1.91,.93-3.03,.71,.83-1,1.5-2.69,3.03-.71Z"/><path class="cls-13" d="M130.02,161.08c-1.27-.79-2.4-1.71-3-3.14,2.06,.04,3.04,1.1,3,3.14Z"/><path class="cls-13" d="M167.24,409.12c.85,.6,1.46,1.35,1.59,2.42-.6,.08-1.42,.46-1.75,.2-1.08-.83-.02-1.74,.16-2.62Z"/><path class="cls-13" d="M944.17,367.61c.58-.7,1.15-1.4,1.73-2.11,.19,.7,.9,1.36,.31,2.14-.66,.87-1.36,.28-2.03-.03Z"/><path class="cls-13" d="M694.04,158.89c0-1.33,.01-2.65,.02-3.98,2.46,1.34,1.29,2.66-.02,3.98Z"/><path class="cls-13" d="M118.23,297.37c.55,1.1,1.09,2.21,1.64,3.31-2.34-.22-2.63-1.45-1.64-3.31Z"/><path class="cls-13" d="M301.33,540.55c-.76,.71-1.09,1.06-1.12,1.04-.5-.39-1.11-.74-1.38-1.27-.34-.66,.21-.86,.75-.66,.6,.22,1.15,.58,1.75,.89Z"/><path class="cls-13" d="M483.34,405.26c-.31-.46-.85-.93-.95-1.48-.11-.61,.52-.7,.89-.35,.45,.42,.74,1,1.1,1.51-.28,.09-.57,.17-1.05,.32Z"/><path class="cls-13" d="M796.9,302.66c-.81,.85-1.69,1.47-2.95,.93-.17-3.95,2.29,.4,2.95-.93Z"/><path class="cls-13" d="M437.77,148.64c-.46,.3-.95,.84-1.51,.91-.62,.08-.65-.57-.3-.92,.43-.43,1.01-.71,1.52-1.05,.08,.29,.15,.58,.29,1.07Z"/><path class="cls-13" d="M323.31,99.09c-1.09,.51-2.17,1.03-3.26,1.54,.27-2.24,1.47-2.51,3.26-1.54Z"/><path class="cls-13" d="M944.24,390.55c.58-1.31,1.35-2.48,2.58-3.27,.14,1.88-.67,3.01-2.58,3.27Z"/><path class="cls-13" d="M672.82,361.59c-.11,1.27-.69,2.24-1.85,2.83-1.13-2.08,.11-2.62,1.85-2.83Z"/><path class="cls-13" d="M599.01,350.53c-.66-.06-1.33-.11-1.99-.17,.74-1.04,1.66-2.28,2.95-1.44,.73,.47-.84,.91-.96,1.61Z"/><path class="cls-13" d="M975.69,305.59c.52-1.51,.89-3.08,2.11-4.24,.2,1.86,.15,3.6-2.11,4.24Z"/><path class="cls-13" d="M987.35,138.33c-.46,.35-.76,.68-1.14,.83-.76,.31-1.21-.02-1.18-.84,.02-.52,.29-.95,.92-.73,.43,.15,.82,.43,1.4,.74Z"/><path class="cls-13" d="M545.06,362.71c-.87,.82-1.93,.91-3.04,.78,.81-1.05,1.45-2.76,3.04-.78Z"/><path class="cls-13" d="M153.73,397.05c-.75-.14-1.29-.53-1.01-1.29,.11-.31,.91-.72,1.08-.61,.51,.34,.87,.91,1.29,1.39-.46,.17-.92,.35-1.36,.52Z"/><path class="cls-13" d="M562,362.44c-1.53,.02-3.11,.42-4.47-.68,1.66-.86,3.18-.84,4.47,.68Z"/><path class="cls-32" d="M730.93,508.52c2.37,.93,4.74,1.87,7.11,2.8-.68,.32-1.35,.64-2.03,.95-2.23-.55-4.32-1.38-6.1-2.87,.21-.44,.54-.74,1.01-.88Z"/><path class="cls-4" d="M622.89,633.41c-.58-1.96-1.15-3.92-2.06-7.03,2.72,2.12,2.39,4.18,2.97,5.83-.3,.4-.6,.8-.9,1.21Z"/><path class="cls-27" d="M545.09,645.19c.45-1.45,.9-2.91,1.35-4.36,1.75,2.46,.7,4.43-.39,6.39-.32-.68-.64-1.35-.96-2.03Z"/><path class="cls-24" d="M412.9,534.25c1.54-1.33,3.08-2.67,5.34-4.63-.6,3.35-2.32,4.58-4.21,5.68-.38-.35-.75-.7-1.13-1.05Z"/><path class="cls-22" d="M583.15,691.16c.54-1.48,1.08-2.96,1.62-4.44,.7,.17,.76,.86,1.06,1.34-.6,1.69-1.2,3.38-1.8,5.07-.3-.66-.59-1.31-.89-1.97Z"/><path class="cls-19" d="M783,475.28c-2.38-.35-4.81-.53-6.85-2.29,3.13-.37,6.11,.22,9.04,1.31-.47,.9-1.58,.39-2.19,.98Z"/><path class="cls-27" d="M363.03,512.3c-.68-.33-1.36-.65-2.04-.98,2.37-.92,4.74-1.84,7.11-2.77,.46,.15,.81,.43,1.05,.86-1.83,1.4-3.83,2.46-6.12,2.89Z"/><path class="cls-23" d="M588.13,672.16c-.24-2.3,.28-4.48,1.42-6.64,.35,2.96,1,5.92-.35,8.88-1.02-.43-.44-1.62-1.07-2.24Z"/><path class="cls-5" d="M314.89,474.34c2.28-1.14,4.67-1.36,7.32-.26-2.06,.37-4.12,.75-6.18,1.12-.43-.23-.99-.27-1.15-.86Z"/><path class="cls-12" d="M783,475.28c.73-.33,1.46-.65,2.19-.98,2.04,.1,4.14-.15,6,1.01-.73,.33-1.46,.65-2.19,.98-2-.34-4-.67-6-1.01Z"/><path class="cls-25" d="M758.25,467.96c2.33,.22,4.81,.08,6.99,2.21-3.01,.58-4.94-1.01-6.99-2.21Z"/><path class="cls-30" d="M588.13,672.16c.36,.75,.71,1.49,1.07,2.24-.08,1.69,.13,3.47-1.64,5.11-.98-2.88,.61-5.05,.57-7.35Z"/><path class="cls-9" d="M314.89,474.34c.38,.29,.76,.57,1.15,.86-1.67,.32-3.33,.65-5,.97-.51-.22-1.14-.27-1.34-.93,1.6-1.09,3.42-.86,5.2-.9Z"/><path class="cls-16" d="M746.12,412.38c-.36,.33-.71,.66-1.07,.99-1.48-.43-2.97-.85-4.92-1.42,2.43-.64,4.27-.67,5.99,.43Z"/><path class="cls-31" d="M762.01,369.77c-.33,.56-.65,1.11-.98,1.67h-5.75c2.75-1.29,4.63-1.91,6.73-1.67Z"/><path class="cls-1" d="M585.85,683.85c.04-1.26,.15-2.49,1.4-3.98,1.03,2.18-.44,3.61-.52,5.13-.94,.11-1.29-.22-.88-1.15Z"/><path class="cls-10" d="M549.1,636.27c-.12,1.36,.17,2.89-1.46,3.86-.85-1.9,.53-3.27,.64-4.82,.82-.15,1.35-.06,.82,.95Z"/><path class="cls-15" d="M419,529.21c1.08-1.58,2.08-2.8,4.47-3.91-1.41,2.14-1.63,4.19-4.47,3.91Z"/><path class="cls-28" d="M369.15,509.41c-.35-.29-.7-.57-1.05-.86,1.42-.58,2.83-1.15,5.13-2.09-1.32,2.16-2.69,2.58-4.08,2.95Z"/><path class="cls-3" d="M771.13,471.32c1.37,.19,2.95-.2,3.92,1.63-1.9,.72-3.36-.67-4.98-.79-.12-.86,.07-1.35,1.05-.84Z"/><path class="cls-7" d="M329.05,472.16c-1.48,.4-2.96,.81-5.52,1.51,1.97-2.61,3.82-2.25,5.49-2.37,.28,.18,.38,.37,.29,.57-.09,.2-.18,.3-.27,.3Z"/><path class="cls-17" d="M331.93,470.33c1.41-1.32,3.23-.94,5.76-2.12-1.56,2.76-3.41,2.34-4.74,2.93-.47-.11-.81-.38-1.02-.81Z"/><path class="cls-20" d="M549.1,636.27c-.27-.32-.55-.64-.82-.95,.33-1.19,.67-2.38,1.4-4.98,.41,3.01,.53,4.52-.58,5.94Z"/><path class="cls-18" d="M353.99,413.4l.06-1.09c1.01-1.4,2.32-.66,4.75-.96-2.24,1.37-3.34,2.14-4.81,2.05Z"/><path class="cls-21" d="M338.99,371.42c-.65-.56-1.31-1.12-1.96-1.68,1.72-.41,3.19,.33,4.78,.79-.72,1.59-1.85,.9-2.81,.89Z"/><path class="cls-14" d="M309.68,475.23c.45,.31,.9,.62,1.34,.93-1.2,.14-2.41,.28-3.61,.42-.77-.31-1.55-.62-2.32-.94,1.53-.14,3.06-.27,4.59-.41Z"/><path class="cls-29" d="M771.13,471.32c-.35,.28-.7,.56-1.05,.84-1.35-.36-2.88-.22-4.11-1.41,1.97-.95,3.61-.55,5.16,.57Z"/><path class="cls-8" d="M331.93,470.33c.34,.27,.68,.54,1.02,.81-1.3,.34-2.6,.68-3.9,1.02-.02-.29-.03-.58-.03-.87,.71-1.1,1.86-.88,2.9-.97Z"/><path class="cls-2" d="M730.93,508.52c-.34,.29-.67,.59-1.01,.88-.97-.47-1.94-.94-3.13-1.52,1.89-1.21,2.88,.4,4.14,.64Z"/><path class="cls-26" d="M585.85,683.85c.29,.38,.58,.76,.88,1.15l-.9,3.06c-.35-.45-.71-.9-1.06-1.34,.19-1.02,.06-2.16,1.08-2.86Z"/></svg>